<svg xmlns="http://www.w3.org/2000/svg" fill="none" viewBox="0 0 1440 900">
  <mask id="CztgTvwUUa" style="mask-type:alpha" maskUnits="userSpaceOnUse" x="0" y="0" width="1440" height="900">
    <path fill="#EFE4FF" d="M0 0h1440v900H0z"/>
  </mask>
  <g mask="url(#CztgTvwUUa)">
    <path d="M1687-387c-43.97 14.967-130.71 80.154-125.83 221.172 6.1 176.272 139.14 286.581 172.39 452.875 24.55 122.738 21.07 430.148-128.6 559.304m22.14-1196.972c-43.97 14.966-130.71 80.153-125.83 221.171 6.1 176.272 139.14 286.581 172.39 452.876 24.55 122.737 21.07 430.148-128.6 559.303m21.23-1198.507c-43.98 14.967-130.71 80.154-125.83 221.172 6.1 176.272 139.13 286.581 172.39 452.875 24.55 122.738 21.06 430.148-128.6 559.304m20.38-1200.031c-43.98 14.966-130.71 80.153-125.83 221.171 6.1 176.272 139.13 286.581 172.39 452.876 24.55 122.737 21.06 430.148-128.6 559.303m19.54-1201.623c-43.97 14.967-130.71 80.154-125.83 221.172 6.1 176.272 139.14 286.581 172.39 452.875 24.55 122.738 21.07 430.149-128.6 559.304m18.71-1203.331c-43.98 14.966-130.71 80.153-125.83 221.171 6.1 176.272 139.13 286.581 172.39 452.876 24.55 122.737 21.07 430.148-128.6 559.304m17.85-1205.205c-43.97 14.967-130.71 80.154-125.83 221.172 6.1 176.272 139.14 286.581 172.39 452.875 24.55 122.738 21.07 430.149-128.6 559.308m16.98-1207.293c-43.98 14.967-130.71 80.154-125.83 221.172 6.1 176.272 139.13 286.581 172.39 452.875 24.55 122.738 21.07 430.149-128.6 559.306m16.08-1209.648c-43.97 14.967-130.7 80.154-125.83 221.172 6.1 176.272 139.14 286.581 172.4 452.875 24.54 122.738 21.06 430.149-128.61 559.301m15.18-1212.344c-43.98 14.967-130.711 80.154-125.833 221.172 6.098 176.272 139.133 286.581 172.393 452.875 24.55 122.738 21.06 430.149-128.6 559.307m14.27-1215.485c-43.98 14.966-130.712 80.153-125.834 221.171 6.097 176.272 139.134 286.581 172.394 452.876 24.55 122.737 21.06 430.148-128.603 559.308m13.4-1219.177C936.341-74.78 849.609-9.593 854.487 131.425 860.585 307.697 993.62 418.006 1026.88 584.3c24.55 122.738 21.06 430.15-128.602 559.3M910.916-79.96C866.941-64.992 780.209.195 785.087 141.213c6.097 176.272 139.133 286.581 172.392 452.875 24.547 122.738 21.064 430.153-128.601 559.303M840.974-75.444C796.999-60.477 710.267 4.71 715.145 145.728 721.242 322 854.278 432.309 887.537 598.603c24.547 122.738 21.064 430.147-128.601 559.307M770.911-77.28c-43.976 14.965-130.708 80.152-125.83 221.17 6.098 176.272 139.133 286.581 172.392 452.875 24.548 122.738 21.064 430.144-128.601 559.304m12.59-1242.79C657.486-71.754 570.754-6.566 575.632 134.45c6.098 176.273 139.133 286.581 172.392 452.876 24.548 122.737 21.064 430.153-128.601 559.303m14.385-1251.664C589.833-90.067 503.101-24.88 507.979 116.138c6.097 176.272 139.133 286.581 172.392 452.875 24.547 122.738 21.064 430.149-128.601 559.307m6.216-1266.446C514.011-123.16 427.279-57.972 432.157 83.045c6.097 176.273 139.133 286.581 172.392 452.876 24.547 122.738 21.064 430.148-128.601 559.299m17.075-1259.654c-43.976 14.967-130.707 80.154-125.83 221.172 6.098 176.272 139.134 286.581 172.393 452.875 24.547 122.738 21.063 430.149-128.602 559.307m15.125-1254.204c-43.975 14.966-130.707 80.153-125.829 221.171 6.097 176.272 139.133 286.581 172.392 452.876C497.22 611.5 493.736 918.911 344.071 1048.07m13.633-1248.619c-43.976 14.966-130.708 80.154-125.83 221.172 6.098 176.272 139.133 286.58 172.392 452.875 24.548 122.738 21.064 430.148-128.601 559.302m12.623-1243.03c-43.976 14.966-130.708 80.154-125.83 221.172 6.098 176.272 139.133 286.58 172.392 452.875 24.548 122.738 21.064 430.148-128.601 559.303m12.079-1237.569C174.352-199.482 87.62-134.295 92.498 6.723c6.098 176.272 139.133 286.581 172.392 452.875 24.548 122.738 21.064 430.149-128.601 559.302m11.958-1232.322C104.272-198.455 17.54-133.268 22.418 7.75c6.098 176.272 139.133 286.581 172.392 452.875 24.548 122.738 21.064 430.149-128.601 559.305M78.417-207.425C34.441-192.459-52.29-127.271-47.413 13.747c6.098 176.272 139.134 286.58 172.393 452.875C149.527 589.36 146.044 896.77-3.621 1025.93M9.145-196.766C-34.831-181.8-121.562-116.612-116.684 24.405c6.097 176.273 139.133 286.581 172.392 452.876C80.255 600.018 76.772 907.429-72.894 1036.58m13.578-1218.333c-43.975 14.967-130.707 80.154-125.829 221.172C-179.048 215.691-46.012 326-12.753 492.294 11.794 615.032 8.31 922.443-141.354 1051.6m14.599-1214.267c-43.976 14.967-130.708 80.154-125.83 221.172 6.098 176.272 139.133 286.581 172.392 452.875 24.548 122.738 21.064 430.149-128.601 559.3m15.821-1210.428c-43.976 14.966-130.708 80.154-125.83 221.171 6.098 176.273 139.134 286.581 172.392 452.876 24.548 122.738 21.064 430.148-128.601 559.301" stroke="url(#CztgTvwUUb)" stroke-width="2"/>
  </g>
  <defs>
    <linearGradient id="CztgTvwUUb" x1="-148.5" y1="-60" x2="1512.5" y2="943" gradientUnits="userSpaceOnUse">
      <stop stop-color="#1866FF" stop-opacity=".6"/>
      <stop offset=".516" stop-color="#185ADB" stop-opacity="0"/>
      <stop offset="1" stop-color="#1866FF" stop-opacity=".6"/>
    </linearGradient>
  </defs>
</svg>
