<svg xmlns="http://www.w3.org/2000/svg" fill="none" viewBox="0 0 141 143">
  <path fill-rule="evenodd" clip-rule="evenodd" d="M0 72.864L71.845 0H141L0 143V72.864zm20.55 15.614l-2.41-2.41 4.31-4.31-1.233-1.233-5.782 5.78 7.92 7.92 1.47-1.47-3.031-3.032 3.824-3.824-1.245-1.245-3.824 3.824zm7.149-10.815c-1.026 1.026-1.426 2.059-1.2 3.1l-.882-.883-1.346 1.347 6.041 6.041 1.415-1.414-2.93-2.93c-.604-.604-.91-1.218-.917-1.844-.015-.634.253-1.226.803-1.777.098-.098.219-.196.362-.294L27.7 77.663zm10.342-3.26a7.679 7.679 0 00-.395-.442c-.619-.618-1.294-1.03-2.026-1.233a3.777 3.777 0 00-2.183-.011c-.724.196-1.38.588-1.969 1.177-.596.595-1 1.263-1.21 2.002a4.07 4.07 0 00-.012 2.229c.204.731.6 1.391 1.188 1.98.596.596 1.267.995 2.014 1.2a4.105 4.105 0 002.274-.08c.77-.241 1.486-.694 2.15-1.358.52-.52.905-1.07 1.154-1.652.249-.58.347-1.169.294-1.764l-1.63-.114c.008.868-.32 1.633-.984 2.297-.52.52-1.086.83-1.697.928a2.366 2.366 0 01-1.708-.419l4.74-4.74zm-6.188 2.183c.045-.588.294-1.108.747-1.561.46-.46.98-.709 1.56-.747.582-.038 1.12.132 1.619.51l-3.428 3.427c-.377-.513-.543-1.056-.498-1.629zm13.226-9.221a7.603 7.603 0 00-.396-.441c-.618-.619-1.293-1.03-2.025-1.234a3.777 3.777 0 00-2.183-.01c-.724.195-1.38.587-1.969 1.176-.596.596-1 1.263-1.21 2.002a4.07 4.07 0 00-.012 2.229c.204.732.6 1.392 1.188 1.98.596.596 1.267.996 2.014 1.2a4.104 4.104 0 002.274-.08c.77-.241 1.486-.694 2.15-1.358.52-.52.905-1.07 1.154-1.651a3.61 3.61 0 00.294-1.765l-1.63-.114c.008.868-.32 1.633-.984 2.297-.52.52-1.086.83-1.697.928a2.366 2.366 0 01-1.708-.419l4.74-4.74zm-6.188 2.183c.045-.588.294-1.108.747-1.561.46-.46.98-.709 1.56-.747.582-.037 1.12.132 1.619.51l-3.428 3.427c-.378-.512-.544-1.055-.498-1.629zm10.594-10.006l-2.41-2.41 4.311-4.31-1.233-1.233-5.781 5.78 7.92 7.92 1.47-1.47-3.032-3.032 3.824-3.824-1.245-1.245-3.824 3.824zm10.455-2.535c.754-.226 1.437-.645 2.048-1.256.618-.618 1.04-1.305 1.267-2.059.226-.754.241-1.5.045-2.24-.196-.754-.592-1.43-1.188-2.025-.596-.596-1.267-.988-2.014-1.177a4.044 4.044 0 00-2.24.045c-.754.227-1.44.65-2.059 1.268-.61.61-1.03 1.293-1.256 2.047a4.157 4.157 0 00-.056 2.252c.196.739.592 1.407 1.188 2.002.596.596 1.267.996 2.014 1.2.746.188 1.497.17 2.251-.057zm1.607-4.277c.007.687-.25 1.29-.77 1.81-.52.521-1.124.778-1.81.77-.679-.015-1.301-.306-1.867-.871-.565-.566-.856-1.188-.87-1.867-.008-.686.248-1.29.769-1.81.52-.52 1.123-.777 1.81-.77.686.008 1.312.295 1.878.86.565.566.852 1.192.86 1.878zm2.325-11.24c-1.026 1.026-1.426 2.059-1.2 3.1l-.882-.883-1.346 1.347 6.041 6.041 1.415-1.414-2.93-2.93c-.604-.604-.91-1.218-.917-1.844-.015-.634.253-1.226.803-1.777.098-.098.219-.196.362-.294l-1.346-1.346zm10.342-3.26a7.646 7.646 0 00-.395-.441c-.619-.619-1.294-1.03-2.026-1.234a3.778 3.778 0 00-2.183-.01c-.724.195-1.38.587-1.969 1.176-.596.596-1 1.263-1.21 2.002a4.069 4.069 0 00-.012 2.229c.204.732.6 1.392 1.188 1.98.596.596 1.267.995 2.014 1.2a4.105 4.105 0 002.274-.08c.77-.241 1.486-.694 2.15-1.358.52-.52.905-1.07 1.154-1.652.249-.58.347-1.169.294-1.764l-1.63-.114c.008.868-.32 1.633-.984 2.297-.52.52-1.086.83-1.697.928a2.367 2.367 0 01-1.708-.419l4.74-4.74zm-6.188 2.183c.045-.588.294-1.108.746-1.56.46-.461.981-.71 1.562-.748.58-.037 1.12.132 1.618.51l-3.428 3.427c-.377-.512-.543-1.055-.498-1.629zm13.093-3.952l-3.45-8.632-1.358 1.358 2.545 6.415L72.498 33l-1.47 1.47 8.632 3.45 1.46-1.459zm6.398-11.534a7.603 7.603 0 00-.396-.44c-.619-.62-1.294-1.03-2.025-1.234a3.777 3.777 0 00-2.184-.011c-.724.196-1.38.588-1.968 1.176-.596.596-1 1.264-1.21 2.003a4.07 4.07 0 00-.012 2.229c.203.731.6 1.391 1.188 1.98.596.595 1.267.995 2.014 1.199a4.104 4.104 0 002.274-.08c.769-.24 1.486-.693 2.15-1.357.52-.52.904-1.071 1.153-1.652.25-.58.347-1.169.294-1.765l-1.629-.113c.008.867-.32 1.633-.984 2.297-.52.52-1.086.83-1.697.927a2.366 2.366 0 01-1.709-.418l4.74-4.74zm-6.189 2.184c.046-.588.294-1.109.747-1.561.46-.46.98-.71 1.561-.747.581-.038 1.12.132 1.618.51l-3.428 3.427c-.377-.513-.543-1.056-.498-1.63zm7.525-10.602c-1.026 1.026-1.426 2.06-1.2 3.1l-.882-.882-1.346 1.346 6.041 6.041L92.88 24.7l-2.93-2.93c-.603-.603-.909-1.218-.916-1.844-.015-.634.252-1.226.803-1.776.098-.098.219-.196.362-.294l-1.346-1.347z" fill="#185ADB"/>
</svg>
