<svg xmlns="http://www.w3.org/2000/svg" fill="none" viewBox="0 0 24 24">
  <path d="M12.37 2.15l9 3.6c.35.14.63.56.63.93V10c0 .55-.45 1-1 1H3c-.55 0-1-.45-1-1V6.68c0-.37.28-.79.63-.93l9-3.6c.2-.08.54-.08.74 0zM22 22H2v-3c0-.55.45-1 1-1h18c.55 0 1 .45 1 1v3zM4 18v-7m4 7v-7m4 7v-7m4 7v-7m4 7v-7M1 22h22" stroke="#fff" stroke-width="1.5" stroke-miterlimit="10" stroke-linecap="round" stroke-linejoin="round"/>
  <path d="M12 8.5a1.5 1.5 0 100-3 1.5 1.5 0 000 3z" stroke="#fff" stroke-width="1.5" stroke-miterlimit="10" stroke-linecap="round" stroke-linejoin="round"/>
</svg>
