<svg xmlns="http://www.w3.org/2000/svg" fill="none" viewBox="0 0 1440 1233">
  <mask id="eB2viQ29aa" style="mask-type:alpha" maskUnits="userSpaceOnUse" x="0" y="0" width="1440" height="1233">
    <path fill="#EFE4FF" d="M0 0h1440v1233H0z"/>
  </mask>
  <g mask="url(#eB2viQ29aa)">
    <path opacity=".2" d="M32.939 0c66.618 75.439-7.772 161.207 16.654 248.228 25.537 89.524 79.572 88.273 116.212 209.1 23.317 76.377-140.268 296.433-147.67 375.002-8.513 94.533 69.95 142.738 38.49 235.08C37.75 1122.5 18.876 1177.28 0 1232.37M71.06 0c44.411 50.084 26.276 105.177 16.654 161.834-4.811 28.172-7.402 56.656.74 85.455 24.797 89.211 78.832 89.525 112.141 208.787 6.662 23.79-4.811 60.413-22.946 102.045-38.861 88.273-105.85 198.457-119.173 259.184-1.11 5.008-1.85 9.703-2.22 14.086-5.922 77.317 44.782 124.27 46.262 189.379.37 14.4-1.851 29.74-7.402 46.33-18.505 55.09-37.75 110.18-56.626 165.27M109.18 0c44.042 49.77 26.277 104.55 17.024 161.207-4.811 27.859-7.402 56.345.371 85.143 24.056 88.586 78.461 90.776 108.069 208.473 5.922 23.79-5.921 60.414-24.426 101.733C170.247 645.142 107.329 754.7 95.486 816.365c-1.11 5.009-1.85 9.704-1.85 14.086-4.442 77.004 45.152 124.584 46.632 189.689.37 14.4-1.48 29.74-7.031 46.33-18.135 55.41-37.38 110.5-56.626 165.59M147.3 0c44.042 49.77 26.648 104.237 17.395 160.581-4.811 27.859-7.032 56.032.37 84.83 23.687 87.959 77.721 92.029 104.369 208.16 5.551 24.103-7.402 60.414-26.278 101.42-41.081 89.211-99.927 197.83-110.29 260.435-.74 5.009-1.48 9.704-1.85 14.086-3.331 76.378 45.152 124.584 47.003 190.318.37 14.4-1.481 29.74-7.032 46.33-17.765 55.4-37.38 110.5-56.256 166.21M185.791 0c43.672 49.458 27.017 103.924 17.395 159.955-4.442 27.546-7.032 56.032.37 84.517 22.946 87.333 76.981 93.28 100.297 207.847 4.811 24.416-8.512 60.414-27.757 101.107-42.192 89.524-96.967 197.518-105.849 261.062-.741 5.008-1.481 9.703-1.481 14.086-1.85 76.065 45.523 124.896 47.373 190.626.37 14.72-1.48 30.05-6.662 46.64-17.394 55.72-37.01 110.82-56.255 166.53M223.911 0c43.302 49.145 27.018 103.611 17.765 159.329-4.441 27.546-6.662 55.718.37 84.203 22.206 86.708 75.871 94.534 96.227 207.535 4.441 24.729-9.993 60.414-29.609 100.794-43.301 89.837-94.005 197.205-101.407 261.687-.74 5.009-1.111 9.704-1.111 14.087-.74 75.751 45.523 125.209 47.743 190.945.371 14.71-1.48 30.05-6.661 46.64-17.025 56.03-37.01 111.12-56.256 166.84M262.032 0c43.302 48.832 27.387 102.985 18.135 158.704-4.442 27.546-6.662 55.404.37 83.889 21.836 86.082 75.13 96.099 92.155 207.222 3.701 24.729-11.473 60.413-31.088 100.48-44.413 90.151-91.045 196.892-96.967 262.314-.37 5.009-.74 9.704-.74 14.086.37 75.439 45.892 125.523 48.113 191.255.37 14.72-1.481 30.37-6.292 46.96-16.654 56.03-37.01 111.12-56.255 167.46M300.152 0c42.932 48.832 27.758 102.672 18.505 158.077-4.441 27.233-6.662 55.406.37 83.578 20.726 85.455 74.021 97.35 88.085 206.908 3.33 25.042-12.584 60.413-32.94 100.167-45.522 90.464-88.454 196.266-92.895 263.253-.37 5.009-.74 9.704-.74 14.086 1.85 75.126 46.262 125.836 48.483 191.881.37 15.03-1.11 30.37-6.292 46.96-16.654 56.34-36.64 111.43-55.885 167.78M338.273 0c42.931 48.519 27.757 102.359 18.875 157.451-4.441 27.233-6.292 55.092.37 83.265 20.355 84.829 72.91 98.915 84.013 206.595 2.591 25.355-14.064 60.413-34.419 99.854-46.633 90.777-85.494 195.953-88.455 263.879-.37 5.009-.37 9.704-.37 14.086 2.961 74.5 46.263 126.148 48.853 192.2.741 15.02-1.11 30.36-5.921 46.95-16.285 56.34-36.64 111.75-55.885 168.09M376.763 0c42.562 48.206 28.128 101.733 19.246 156.825-4.442 26.92-6.292 54.779.37 82.951 19.615 84.204 71.799 100.481 79.941 205.97 1.851 25.668-15.544 60.414-35.899 99.542-48.113 91.402-82.533 195.639-84.013 264.504 0 5.009-.371 9.704 0 14.086 4.071 74.187 46.632 126.462 49.223 192.512.74 15.02-1.11 30.67-5.551 47.26-15.915 56.66-36.27 112.07-55.886 168.41M414.884 0c42.191 47.893 28.127 101.42 19.615 156.199-4.071 26.92-5.922 54.466.37 82.638 18.875 83.577 70.319 101.733 75.871 205.656 1.48 25.981-17.025 60.414-37.75 99.229-49.224 91.716-79.942 195.014-79.572 265.131 0 5.009 0 9.704.37 14.086 5.181 73.874 46.633 126.461 49.593 192.821.741 15.03-1.11 30.68-5.551 47.27-15.544 56.66-36.27 112.06-55.886 169.03M453.004 0c42.192 47.58 28.498 101.107 19.986 155.573-4.072 26.92-5.922 54.466.37 82.325 18.135 82.951 68.838 103.298 71.799 205.344.741 26.294-18.135 60.413-39.231 98.915-50.333 92.029-77.351 194.701-75.13 265.757 0 5.008 0 9.704.37 14.086 6.292 73.561 47.003 126.775 49.964 193.45.74 15.34-.74 30.99-5.182 47.26-15.174 56.98-35.9 112.38-55.515 169.35M491.124 0c41.822 47.58 28.868 100.794 20.356 154.947-4.071 26.607-5.922 54.153 0 82.012 17.765 82.639 67.359 105.176 67.729 205.031 0 26.607-19.616 60.413-41.082 98.602-51.444 92.342-74.39 194.387-70.689 266.383.37 5.008.37 9.703.74 14.086 7.402 72.934 47.373 127.088 50.334 193.759.74 15.34-.74 30.99-5.182 47.58-14.804 57.29-35.899 112.69-55.515 169.66M529.245 0c41.821 47.267 28.868 100.168 20.726 154.321-4.072 26.607-5.552 53.84 0 81.699 17.024 82.012 65.508 106.741 63.657 204.717-.37 26.92-21.096 60.727-42.562 98.29-52.924 92.655-71.799 193.761-66.248 267.008.37 5.009.74 9.704 1.11 14.087 8.883 72.621 47.373 127.4 50.704 194.078.741 15.33-.74 30.99-4.811 47.58-14.434 57.28-35.9 112.68-55.515 170.28M567.735 0c41.452 46.953 29.238 99.855 21.096 153.695-4.071 26.294-5.551 53.84 0 81.386 16.285 81.386 64.028 108.306 59.586 204.404-1.11 27.233-22.576 60.727-44.412 97.977-54.034 92.968-69.208 193.448-61.806 267.635.37 5.008.74 9.704 1.48 14.086 9.993 72.309 47.743 127.713 51.074 194.387.74 15.34-.74 31.3-4.811 47.89-14.064 57.6-35.53 113-55.516 170.6M605.856 0c41.081 46.64 29.608 99.542 21.466 153.069-4.071 26.294-5.182 53.527 0 81.073 15.914 80.76 62.177 109.871 55.515 204.091-1.85 27.546-23.687 60.727-45.893 97.664-55.145 93.594-66.618 192.822-57.365 268.261.74 5.008 1.11 9.704 1.48 14.086 11.103 71.995 47.743 128.027 51.444 195.016.74 15.65-.74 31.3-4.441 47.89-13.694 57.6-35.53 113.31-55.145 170.91M643.976 0c41.082 46.328 29.609 98.916 21.836 152.443-3.701 26.294-5.181 53.213 0 80.759 15.175 80.135 60.327 111.437 51.444 203.779-2.59 27.859-25.166 60.726-47.372 97.663-56.626 93.907-63.658 192.51-52.925 269.2.74 5.009 1.11 9.704 1.85 14.087 12.214 71.682 48.114 128.027 51.815 195.329.74 15.65-.37 31.61-4.441 47.89-13.324 57.91-35.16 113.63-55.146 171.54M682.097 0c40.711 46.328 29.978 98.602 22.206 151.816-3.701 25.981-5.182 52.902 0 80.448 14.434 79.508 58.106 113.002 47.743 203.465-3.331 28.172-26.647 60.726-49.223 97.35-57.736 94.22-61.067 192.196-48.484 269.826.74 5.009 1.481 9.704 2.221 14.4 13.324 71.056 48.483 128.339 52.184 195.635.741 15.66-.37 31.62-4.071 48.21-12.953 57.91-35.159 113.63-55.145 171.85M720.217 0c40.711 46.014 30.349 98.29 22.576 151.19-3.701 25.981-4.811 52.902 0 80.135 14.064 78.882 56.256 114.566 43.673 203.152-4.072 28.485-28.128 60.726-50.705 97.037-58.846 94.533-58.845 191.571-44.041 270.453.74 5.008 1.48 9.703 2.59 14.398 14.434 70.744 48.483 128.653 52.554 195.955 1.111 15.65-.37 31.61-4.071 48.2-12.583 58.23-34.789 113.94-55.145 172.17M758.708 0c40.341 45.701 30.348 97.977 22.946 150.565-3.701 25.668-4.811 52.588 0 79.821 13.324 78.255 54.035 116.444 39.601 202.526-4.811 29.111-29.608 60.727-52.555 96.724-60.326 94.846-56.255 191.257-39.6 271.078 1.11 5.009 1.85 9.704 2.59 14.4 15.545 70.43 48.854 128.965 52.925 196.576 1.11 15.97-.37 31.93-3.701 48.52-12.584 58.54-34.79 114.25-54.775 172.79M796.828 0c39.971 45.388 30.719 97.35 23.317 149.939-3.701 25.668-4.442 52.274 0 79.507 12.583 77.63 51.814 118.011 35.529 202.214-5.551 29.424-31.088 60.727-54.034 96.411-61.437 95.159-53.665 190.944-35.16 271.704 1.11 5.008 1.851 9.704 2.961 14.399 16.285 70.118 49.223 129.279 53.294 196.896 1.111 15.96 0 31.92-3.701 48.51-12.213 58.54-34.789 114.26-54.774 173.11M834.948 0c39.971 45.075 31.089 97.038 23.687 149.313-3.701 25.355-4.441 52.274 0 79.194 12.213 77.004 49.594 119.575 31.459 201.9-6.662 29.738-32.569 60.727-55.516 96.099-62.917 95.472-51.074 190.318-30.718 272.331 1.11 5.008 2.221 9.703 3.331 14.398 17.395 69.491 49.223 129.592 53.665 197.205 1.11 15.96-.001 32.24-3.331 48.52-11.844 58.85-34.42 114.57-54.775 173.41M873.069 0c39.601 45.075 31.089 96.724 24.057 148.686-3.331 25.355-4.072 51.963-.371 78.883 11.474 76.377 47.374 121.139 27.388 201.587-7.402 30.05-33.679 60.726-57.366 95.785-64.027 95.785-48.853 190.005-26.277 272.956 1.481 5.009 2.221 9.704 3.701 14.399 18.505 69.178 49.594 129.592 54.035 197.834 1.11 16.27 0 32.24-2.961 48.83-11.473 58.85-34.419 114.88-54.775 174.04M911.559 0c39.601 44.762 31.459 96.098 24.427 148.06-3.331 25.355-4.071 51.649-.37 78.569 10.733 75.752 44.782 122.706 23.317 201.275-8.143 30.363-35.16 60.726-58.847 95.472-65.508 96.098-46.263 189.692-21.836 273.582 1.481 4.695 2.591 9.704 4.072 14.399 19.615 68.866 49.593 129.905 54.404 198.143 1.111 16.28 0 32.56-2.961 48.83-11.103 59.16-34.049 115.2-54.404 174.36M949.68 0c39.231 44.45 31.458 95.785 24.797 147.434-3.331 25.042-4.071 51.336-.37 78.256 10.362 75.126 42.193 124.27 19.245 200.961-9.252 30.676-36.64 60.727-60.697 95.16-66.988 96.411-44.042 189.379-17.395 274.208 1.481 4.695 2.591 9.704 4.072 14.399 20.726 68.552 49.963 130.218 54.775 198.452 1.11 16.28.37 32.56-2.591 49.15-10.733 59.47-34.05 115.19-54.405 174.67M987.801 0c38.859 44.136 31.829 95.473 25.169 146.808-3.33 25.042-3.7 51.336-.37 77.943 9.62 74.813 39.97 125.836 15.17 200.648-9.99 30.99-38.119 60.727-62.176 94.847-68.098 96.724-41.451 188.753-13.324 275.147 1.481 4.695 2.962 9.704 4.442 14.399 21.836 68.239 50.338 130.531 55.148 198.768 1.11 16.28.37 32.56-2.59 49.15-10.367 59.47-33.683 115.5-54.409 175.29M1025.92 0c38.86 43.823 32.2 95.16 25.54 146.183-3.33 24.728-3.7 51.022-.37 77.629 8.88 74.186 37.38 127.087 11.1 200.335-11.1 30.989-39.6 60.727-64.027 94.534-69.579 97.037-39.231 188.439-8.882 275.773 1.85 4.695 3.331 9.704 4.811 14.399 22.578 67.926 50.338 130.844 55.518 199.397 1.11 16.59.37 32.87-2.22 49.14-10 59.79-33.68 115.82-54.408 175.61M1064.04 0c38.49 43.823 32.2 94.533 25.91 145.556-3.33 24.729-3.33 50.71-.37 77.317 8.51 73.561 34.79 128.653 7.03 200.022-12.21 31.302-41.08 60.727-65.51 94.22-70.687 97.351-37.008 188.127-4.44 276.4 1.85 4.695 3.33 9.704 5.18 14.399 23.69 67.3 50.71 131.157 55.89 199.706 1.11 16.59.37 32.87-2.22 49.46-9.63 59.79-33.68 115.82-54.04 175.92M1102.53 0c38.49 43.51 32.57 94.22 26.28 144.93-2.96 24.729-3.33 50.397-.37 77.004 7.77 72.935 31.83 130.218 2.96 199.709-13.32 31.616-42.56 60.414-66.99 93.907-72.168 97.664-34.42 187.814 0 277.026 1.85 4.695 3.7 9.703 5.18 14.399 24.8 66.987 50.71 131.157 56.26 200.025 1.48 16.59.74 33.18-1.85 49.45-9.25 60.1-33.31 116.14-54.04 176.55M1140.65 0c38.12 43.197 32.94 93.907 26.65 144.304-2.96 24.416-2.96 50.397-.37 76.691 7.4 72.308 29.24 131.47-1.11 199.083-14.06 31.929-44.04 60.413-68.84 93.594-73.65 97.663-32.2 187.501 4.44 277.652 1.85 4.695 3.7 9.704 5.55 14.399 25.91 66.674 51.08 131.47 56.63 200.337 1.48 16.59.74 33.18-1.85 49.46-8.51 60.41-33.31 116.44-54.04 176.85M1178.77 0c37.75 42.884 32.94 93.281 27.02 143.678-2.96 24.416-2.96 50.084-.37 76.378 6.66 71.682 26.65 132.722-5.18 198.77-15.18 31.928-45.52 60.413-70.32 93.281-75.13 97.976-29.98 187.187 8.88 278.277 2.22 4.696 4.07 9.704 5.92 14.4 26.65 66.361 51.45 131.782 57 200.956 1.48 16.91.74 33.19-1.48 49.78-8.14 60.41-32.94 116.75-54.04 177.17M1216.89 0c37.75 42.884 33.31 92.969 27.39 143.052-2.96 24.103-2.96 49.77-.74 76.064 5.92 71.057 24.06 133.975-8.88 198.458-16.66 32.241-47 60.413-72.17 92.968-76.24 98.289-27.76 186.875 13.32 278.904 2.22 4.695 4.07 9.703 6.29 14.398 27.76 66.048 51.45 132.097 57.37 201.276 1.48 16.9.74 33.49-1.48 49.77-8.14 60.73-32.94 116.76-53.67 177.48M1255.01 0c37.38 42.571 33.68 92.655 27.76 142.426-2.96 24.103-2.59 49.771-.74 75.752 5.55 70.43 21.1 135.226-12.95 198.143-17.77 32.555-48.49 60.414-73.65 92.655-77.72 98.603-25.54 186.563 17.76 279.531 2.22 4.695 4.44 9.703 6.29 14.398 28.87 65.735 51.82 132.41 57.74 201.585 1.48 16.91 1.11 33.5-1.11 50.09-7.77 60.72-32.57 117.07-53.67 178.11M1293.5 0c37.38 42.258 33.68 92.342 28.13 141.8-2.96 24.103-2.59 49.458-.74 75.439 5.18 69.804 18.51 136.478-17.02 197.83-18.88 32.555-49.97 60.414-75.5 92.342-79.2 98.916-23.32 186.562 22.2 280.156 2.22 4.696 4.44 9.391 6.66 14.4 29.61 65.422 51.82 132.722 58.11 201.903 1.48 17.21 1.11 33.8-.74 50.08-7.4 61.04-32.57 117.38-53.66 178.42M1331.62 0c37.01 41.945 34.05 91.716 28.5 141.174-2.59 23.79-2.22 49.145-.74 75.126 4.44 69.178 15.55 137.73-21.09 197.518-19.99 32.554-51.45 60.413-76.98 92.028-80.69 98.916-21.1 186.249 26.64 280.782 2.22 4.696 4.81 9.391 7.04 14.4 30.71 65.108 52.18 132.721 58.47 202.522 1.48 17.22 1.11 33.81-.74 50.09-7.03 61.35-32.57 117.38-53.66 178.73M1369.75 0c36.64 41.632 34.04 91.403 28.86 140.548-2.59 23.79-2.22 48.831-.74 74.812 3.7 68.552 12.96 138.67-25.16 197.205-21.47 32.868-52.93 60.414-78.47 91.716-82.16 99.229-18.87 185.936 31.09 281.721 2.59 4.696 4.81 9.391 7.41 14.4 31.45 64.796 52.55 133.034 58.84 202.838 1.48 17.22 1.11 33.81-.37 50.4-6.66 61.35-32.2 117.69-53.29 179.36M1407.87 0c36.64 41.632 34.42 91.09 29.23 139.922-9.62 86.082 24.43 192.822-29.97 271.078-22.58 32.867-54.41 60.413-80.32 91.403-83.64 99.541-16.65 185.623 35.53 282.348 37.01 68.552 59.59 142.425 66.62 217.549 7.77 82.64-26.65 152.13-53.66 230.07" stroke="url(#eB2viQ29ab)" stroke-miterlimit="10"/>
  </g>
  <defs>
    <linearGradient id="eB2viQ29ab" x1="0" y1="0" x2="1326.44" y2="1349.02" gradientUnits="userSpaceOnUse">
      <stop stop-color="#185ADB"/>
      <stop offset=".5" stop-color="#185ADB" stop-opacity="0"/>
      <stop offset="1" stop-color="#185ADB"/>
    </linearGradient>
  </defs>
</svg>
