<svg xmlns="http://www.w3.org/2000/svg" fill="none" viewBox="0 0 246 50">
  <path d="M50 45c-8.284 0-15-6.716-15-15 0-8.284 6.716-15 15-15v10.5a4.5 4.5 0 000 9V45z" fill="#6D9CF8"/>
  <path d="M0 20a26.861 26.861 0 018.125-1.25C22.968 18.75 35 30.782 35 45.625c0 1.49-.121 2.951-.354 4.375H17.947c.597-1.336.928-2.817.928-4.375 0-5.937-4.813-10.75-10.75-10.75A10.725 10.725 0 000 38.585V20z" fill="#A5C1F9"/>
  <path d="M47.363 0C46.12 11.25 36.582 20 25.001 20 13.419 20 3.88 11.25 2.638 0h16.09a6.752 6.752 0 0012.544 0h16.091z" fill="#185ADB"/>
  <path d="M80.808 15.4c1.736 0 3.239.29 4.508.868 1.288.579 2.277 1.4 2.968 2.464.69 1.064 1.036 2.324 1.036 3.78 0 1.437-.345 2.697-1.036 3.78-.69 1.064-1.68 1.885-2.968 2.464-1.27.56-2.772.84-4.508.84H76.86V35h-4.536V15.4h8.484zm-.252 10.5c1.363 0 2.399-.29 3.108-.868.71-.597 1.064-1.437 1.064-2.52 0-1.101-.355-1.941-1.064-2.52-.71-.597-1.745-.896-3.108-.896H76.86V25.9h3.696zm11.968-11.676h4.368V35h-4.368V14.224zm14.498 5.488c2.333 0 4.125.56 5.376 1.68 1.25 1.101 1.876 2.772 1.876 5.012V35h-4.088v-1.876c-.822 1.4-2.352 2.1-4.592 2.1-1.158 0-2.166-.196-3.024-.588-.84-.392-1.484-.933-1.932-1.624-.448-.69-.672-1.475-.672-2.352 0-1.4.522-2.501 1.568-3.304 1.064-.803 2.697-1.204 4.9-1.204h3.472c0-.952-.29-1.68-.868-2.184-.579-.523-1.447-.784-2.604-.784-.803 0-1.596.13-2.38.392-.766.243-1.419.579-1.96 1.008l-1.568-3.052c.821-.579 1.801-1.027 2.94-1.344a13.383 13.383 0 013.556-.476zm-.336 12.572c.746 0 1.409-.168 1.988-.504.578-.355.989-.868 1.232-1.54V28.7h-2.996c-1.792 0-2.688.588-2.688 1.764 0 .56.214 1.008.644 1.344.448.317 1.054.476 1.82.476zm16.609 2.94c-1.251 0-2.473-.15-3.668-.448-1.195-.317-2.147-.71-2.856-1.176l1.456-3.136c.672.43 1.484.784 2.436 1.064a10.56 10.56 0 002.8.392c1.848 0 2.772-.457 2.772-1.372 0-.43-.252-.737-.756-.924-.504-.187-1.279-.345-2.324-.476-1.232-.187-2.249-.401-3.052-.644a4.83 4.83 0 01-2.1-1.288c-.579-.616-.868-1.493-.868-2.632 0-.952.271-1.792.812-2.52.56-.747 1.363-1.325 2.408-1.736 1.064-.41 2.315-.616 3.752-.616 1.064 0 2.119.121 3.164.364 1.064.224 1.941.541 2.632.952l-1.456 3.108c-1.325-.747-2.772-1.12-4.34-1.12-.933 0-1.633.13-2.1.392-.467.261-.7.597-.7 1.008 0 .467.252.793.756.98.504.187 1.307.364 2.408.532 1.232.205 2.24.43 3.024.672a4.438 4.438 0 012.044 1.26c.579.616.868 1.475.868 2.576 0 .933-.28 1.764-.84 2.492-.56.728-1.381 1.297-2.464 1.708-1.064.392-2.333.588-3.808.588zm29.099-15.512c1.885 0 3.379.56 4.48 1.68 1.12 1.101 1.68 2.763 1.68 4.984V35h-4.368v-7.952c0-1.195-.252-2.081-.756-2.66-.485-.597-1.185-.896-2.1-.896-1.027 0-1.839.336-2.436 1.008-.597.653-.896 1.633-.896 2.94V35h-4.368v-7.952c0-2.37-.952-3.556-2.856-3.556-1.008 0-1.811.336-2.408 1.008-.597.653-.896 1.633-.896 2.94V35h-4.368V19.936h4.172v1.736a5.535 5.535 0 012.044-1.456c.821-.336 1.717-.504 2.688-.504 1.064 0 2.025.215 2.884.644a5.008 5.008 0 012.072 1.82 6.207 6.207 0 012.324-1.82c.952-.43 1.988-.644 3.108-.644zm10.075.224h4.368V35h-4.368V19.936zm2.184-2.1c-.803 0-1.456-.233-1.96-.7a2.27 2.27 0 01-.756-1.736c0-.69.252-1.27.756-1.736.504-.467 1.157-.7 1.96-.7.803 0 1.456.224 1.96.672.504.448.756 1.008.756 1.68 0 .728-.252 1.335-.756 1.82-.504.467-1.157.7-1.96.7zm13.518 17.388c-1.605 0-3.052-.327-4.34-.98-1.269-.672-2.268-1.596-2.996-2.772-.709-1.176-1.064-2.51-1.064-4.004 0-1.493.355-2.828 1.064-4.004.728-1.176 1.727-2.09 2.996-2.744 1.288-.672 2.735-1.008 4.34-1.008 1.587 0 2.968.336 4.144 1.008a5.804 5.804 0 012.604 2.828l-3.388 1.82c-.784-1.381-1.913-2.072-3.388-2.072-1.139 0-2.081.373-2.828 1.12-.747.747-1.12 1.764-1.12 3.052s.373 2.305 1.12 3.052c.747.747 1.689 1.12 2.828 1.12 1.493 0 2.623-.69 3.388-2.072l3.388 1.848c-.541 1.195-1.409 2.128-2.604 2.8-1.176.672-2.557 1.008-4.144 1.008zM200.65 30.8h-9.1l-1.736 4.2h-4.648l8.736-19.6h4.48l8.764 19.6h-4.76l-1.736-4.2zm-1.428-3.444l-3.108-7.504-3.108 7.504h6.216zm18.553-7.644c1.4 0 2.67.327 3.808.98a6.786 6.786 0 012.716 2.716c.654 1.157.98 2.51.98 4.06 0 1.55-.326 2.912-.98 4.088a7.027 7.027 0 01-2.716 2.716c-1.138.635-2.408.952-3.808.952-1.922 0-3.434-.607-4.536-1.82v7.028h-4.368V19.936h4.172v1.736c1.083-1.307 2.66-1.96 4.732-1.96zm-.756 11.928c1.12 0 2.035-.373 2.744-1.12.728-.765 1.092-1.783 1.092-3.052 0-1.27-.364-2.277-1.092-3.024-.709-.765-1.624-1.148-2.744-1.148s-2.044.383-2.772 1.148c-.709.747-1.064 1.755-1.064 3.024 0 1.27.355 2.287 1.064 3.052.728.747 1.652 1.12 2.772 1.12zm20.089-11.928c1.4 0 2.669.327 3.808.98a6.798 6.798 0 012.716 2.716c.653 1.157.98 2.51.98 4.06 0 1.55-.327 2.912-.98 4.088a7.04 7.04 0 01-2.716 2.716c-1.139.635-2.408.952-3.808.952-1.923 0-3.435-.607-4.536-1.82v7.028h-4.368V19.936h4.172v1.736c1.082-1.307 2.66-1.96 4.732-1.96zm-.756 11.928c1.12 0 2.034-.373 2.744-1.12.728-.765 1.092-1.783 1.092-3.052 0-1.27-.364-2.277-1.092-3.024-.71-.765-1.624-1.148-2.744-1.148s-2.044.383-2.773 1.148c-.709.747-1.063 1.755-1.063 3.024 0 1.27.354 2.287 1.063 3.052.729.747 1.653 1.12 2.773 1.12z" fill="#000"/>
</svg>
