<svg xmlns="http://www.w3.org/2000/svg" fill="#fff" viewBox="0 0 46.91 57.191">
    <title>apple</title>
    <path
        d="M15.553 57.191C7.041 57.142 0 39.767 0 30.918c0-14.455 10.843-17.619 15.022-17.619a17.286 17.286 0 015.668 1.394 12.67 12.67 0 003.237.928 10.071 10.071 0 002.322-.753 18.609 18.609 0 017-1.692h.016c2.05 0 8.266.45 12 6.062l.875 1.316-1.26.951c-1.8 1.358-5.084 3.835-5.084 8.743 0 5.812 3.719 8.047 5.506 9.122.789.475 1.605.964 1.605 2.034 0 .7-5.576 15.7-13.674 15.7a11 11 0 01-4.618-1.121 9.363 9.363 0 00-4.11-.99 10.572 10.572 0 00-3.255.88 15.941 15.941 0 01-5.645 1.317z" />
    <path d="M34.106 0c.211 7.6-5.227 12.88-10.659 12.549C22.551 6.48 28.877 0 34.106 0z" />
</svg>