<svg fill="none" xmlns="http://www.w3.org/2000/svg" viewBox="0 0 16 16">
  <g clip-path="url(#1m2nkX34Udnea)">
    <path d="M8 15.166A7.173 7.173 0 01.833 8 7.173 7.173 0 018 .833 7.173 7.173 0 0115.166 8 7.173 7.173 0 018 15.166z" fill="#fff"/>
    <path d="M8 15.166A7.173 7.173 0 01.833 8 7.173 7.173 0 018 .833 7.173 7.173 0 0115.166 8 7.173 7.173 0 018 15.166zM8 1.833A6.174 6.174 0 001.833 8c0 3.4 2.767 6.166 6.167 6.166S14.166 11.4 14.166 8c0-3.4-2.766-6.167-6.166-6.167z" fill="#3861FB"/>
    <path d="M6.114 10.387a.495.495 0 01-.354-.147.503.503 0 010-.706L9.534 5.76a.503.503 0 01.706 0 .503.503 0 010 .707L6.467 10.24a.484.484 0 01-.353.147z" fill="#3861FB"/>
    <path d="M9.887 10.387a.495.495 0 01-.353-.147L5.76 6.467a.503.503 0 010-.707.503.503 0 01.707 0l3.773 3.774a.503.503 0 010 .706c-.1.1-.226.147-.353.147z" fill="#3861FB"/>
  </g>
  <defs>
    <clipPath id="1m2nkX34Udnea">
      <path fill="#fff" d="M0 0h16v16H0z"/>
    </clipPath>
  </defs>
</svg>
