<svg width="34" height="34" viewBox="0 0 34 34" fill="none" xmlns="http://www.w3.org/2000/svg">
<path d="M22.8438 32.9375H3.71875V22.3125C3.71875 19.3906 6.10938 17 9.03125 17H17.5312C20.4531 17 22.8438 19.3906 22.8438 22.3125V32.9375Z" fill="#81D4FA"/>
<path d="M10.625 17H9.03125C6.10938 17 3.71875 19.3906 3.71875 22.3125V32.9375H5.3125V22.3125C5.3125 19.3906 7.70312 17 10.625 17Z" fill="#B3E5FC"/>
<path d="M15.9375 17H17.5312C20.4531 17 22.8438 19.3906 22.8438 22.3125V32.9375H21.25V22.3125C21.25 19.3906 18.8594 17 15.9375 17Z" fill="#4FC3F7"/>
<path d="M7.4375 22.8438H6.90625V32.9375H7.4375V22.8438Z" fill="#4FC3F7"/>
<path d="M19.6562 22.8438H19.125V32.9375H19.6562V22.8438Z" fill="#4FC3F7"/>
<path d="M11.1562 17V14.3438H15.4062V17C14.45 18.5938 12.1125 18.5938 11.1562 17Z" fill="#FEA79C"/>
<path d="M14.3438 15.672H12.272C9.3501 15.672 6.95947 13.3345 6.95947 10.3595V8.2876C6.95947 5.36572 9.29697 2.9751 12.272 2.9751H14.3438C17.2657 2.9751 19.6563 5.3126 19.6563 8.2876V10.3595C19.6563 13.2813 17.2657 15.672 14.3438 15.672Z" fill="#FFBEB6"/>
<path d="M19.6561 8.23438C19.6561 5.3125 17.2654 2.92188 14.3436 2.92188H12.8561C15.7248 2.975 18.0623 5.3125 18.0623 8.23438V10.3062C18.0623 13.2281 15.7248 15.6187 12.7498 15.6187H12.1123C12.1654 15.6187 12.2186 15.6187 12.2186 15.6187H14.2904C17.2123 15.6187 19.6029 13.2281 19.6029 10.3062L19.6561 8.23438Z" fill="#FEA79C"/>
<path d="M10.6815 9.9344C11.1216 9.93269 11.477 9.57453 11.4753 9.13443C11.4736 8.69433 11.1154 8.33894 10.6753 8.34065C10.2352 8.34236 9.8798 8.70052 9.88151 9.14063C9.88322 9.58073 10.2414 9.93611 10.6815 9.9344Z" fill="#34444C"/>
<path d="M15.9408 9.88118C16.3809 9.87947 16.7363 9.52131 16.7345 9.08121C16.7328 8.64111 16.3747 8.28572 15.9346 8.28743C15.4945 8.28914 15.1391 8.6473 15.1408 9.0874C15.1425 9.5275 15.5007 9.88289 15.9408 9.88118Z" fill="#34444C"/>
<path d="M13.2811 13.1218C12.7498 13.1218 12.2186 12.9093 11.7936 12.5374C11.6873 12.4312 11.6873 12.2718 11.7936 12.1655C11.8998 12.0593 12.0592 12.0593 12.1654 12.1655C12.4311 12.4312 12.8561 12.5905 13.2811 12.5905C13.7061 12.5905 14.0779 12.4312 14.3967 12.1124C14.5029 12.0062 14.6623 12.0062 14.7686 12.1124C14.8748 12.2187 14.8748 12.378 14.7686 12.4843C14.3436 12.9093 13.8123 13.1218 13.2811 13.1218Z" fill="#34444C"/>
<path d="M8.55332 10.3595V8.2876C8.55332 5.36572 10.8908 2.9751 13.8658 2.9751H14.5033C14.4502 2.9751 14.3971 2.9751 14.3971 2.9751H12.3252C9.40332 2.9751 7.0127 5.36572 7.0127 8.2876V10.3595C7.0127 13.2813 9.40332 15.672 12.3252 15.672H13.8127C10.8908 15.6188 8.55332 13.2813 8.55332 10.3595Z" fill="#FEA79C"/>
<path d="M20.1875 7.4375V5.3125C20.1875 3.55938 18.7531 2.125 17 2.125V4.25C17 6.00312 18.4344 7.4375 20.1875 7.4375Z" fill="#34444C"/>
<path d="M17.6375 3.34688C16.4688 1.96563 14.7156 1.0625 12.75 1.0625C9.50938 1.0625 6.8 3.50625 6.42813 6.69375L6.375 7.4375H8.925C11.4219 7.4375 13.8125 6.5875 15.725 4.99375L17.6375 3.34688Z" fill="#34444C"/>
<path d="M13.5469 1.11562C13.2812 1.0625 13.0156 1.0625 12.75 1.0625C9.50938 1.0625 6.8 3.50625 6.42813 6.69375L6.375 7.4375H7.96875L8.02188 6.69375C8.39375 3.77188 10.6781 1.4875 13.5469 1.11562Z" fill="#6B777C"/>
<path d="M9.03125 17L7.96875 19.6562H9.5625L9.03125 21.25L12.2188 24.9688L10.0938 17H9.03125Z" fill="#ECEFF1"/>
<path d="M17.5312 17L18.5938 19.6562H17L17.5312 21.25L14.3438 24.9688L16.4688 17H17.5312Z" fill="#ECEFF1"/>
<path d="M12.1656 32.9375V24.9688L10.0938 17H11.1562C12.1125 18.5938 14.45 18.5938 15.4062 17H16.4688L14.3438 24.9688V32.9375H12.1656Z" fill="#A1FFC7"/>
<path d="M10.6782 11.5283C9.3501 11.5283 8.2876 10.4658 8.2876 9.1377C8.2876 7.80957 9.3501 6.74707 10.6782 6.74707C12.0063 6.74707 13.0688 7.80957 13.0688 9.1377C13.0688 10.4658 11.9532 11.5283 10.6782 11.5283ZM10.6782 7.27832C9.66885 7.27832 8.81885 8.12832 8.81885 9.1377C8.81885 10.1471 9.66885 10.9971 10.6782 10.9971C11.6876 10.9971 12.5376 10.1471 12.5376 9.1377C12.5376 8.12832 11.6876 7.27832 10.6782 7.27832Z" fill="#34444C"/>
<path d="M15.9375 11.5283C14.6094 11.5283 13.5469 10.4658 13.5469 9.1377C13.5469 7.80957 14.6094 6.74707 15.9375 6.74707C17.2656 6.74707 18.3281 7.80957 18.3281 9.1377C18.3281 10.4658 17.2656 11.5283 15.9375 11.5283ZM15.9375 7.27832C14.9281 7.27832 14.0781 8.12832 14.0781 9.1377C14.0781 10.1471 14.9281 10.9971 15.9375 10.9971C16.9469 10.9971 17.7969 10.1471 17.7969 9.1377C17.7969 8.12832 16.9469 7.27832 15.9375 7.27832Z" fill="#34444C"/>
<path d="M8.55322 8.5H6.95947C6.8001 8.5 6.69385 8.39375 6.69385 8.23438C6.69385 8.075 6.8001 7.96875 6.95947 7.96875H8.55322C8.7126 7.96875 8.81885 8.075 8.81885 8.23438C8.81885 8.39375 8.65947 8.5 8.55322 8.5Z" fill="#34444C"/>
<path d="M19.6562 8.5H18.0625C17.9031 8.5 17.7969 8.39375 17.7969 8.23438C17.7969 8.075 17.9031 7.96875 18.0625 7.96875H19.6562C19.8156 7.96875 19.9219 8.075 19.9219 8.23438C19.9219 8.39375 19.8156 8.5 19.6562 8.5Z" fill="#34444C"/>
<path d="M13.3345 19.9219C9.40322 19.9219 6.1626 16.6813 6.1626 12.75V10.0938C6.1626 9.93437 6.26885 9.82812 6.42822 9.82812C6.5876 9.82812 6.69385 9.93437 6.69385 10.0938V12.75C6.69385 16.4156 9.66885 19.3906 13.3345 19.3906C17.0001 19.3906 19.9751 16.4156 19.9751 12.75V10.0938C19.9751 9.93437 20.0813 9.82812 20.2407 9.82812C20.4001 9.82812 20.5063 9.93437 20.5063 10.0938V12.75C20.5063 16.6813 17.2657 19.9219 13.3345 19.9219Z" fill="#34444C"/>
<path d="M19.9751 11.6875H20.5063C20.8251 11.6875 21.0376 11.475 21.0376 11.1562V9.5625C21.0376 9.24375 20.8251 9.03125 20.5063 9.03125H19.9751C19.6563 9.03125 19.4438 9.24375 19.4438 9.5625V11.1562C19.4438 11.4219 19.6563 11.6875 19.9751 11.6875Z" fill="#6B777C"/>
<path d="M6.1626 11.6875H6.69385C7.0126 11.6875 7.2251 11.475 7.2251 11.1562V9.5625C7.2251 9.24375 7.0126 9.03125 6.69385 9.03125H6.1626C5.84385 9.03125 5.63135 9.24375 5.63135 9.5625V11.1562C5.63135 11.4219 5.84385 11.6875 6.1626 11.6875Z" fill="#6B777C"/>
<path d="M26.0314 27.625H20.8252C16.4158 27.625 12.8564 24.0656 12.8564 19.6562C12.8564 19.4969 12.9627 19.3906 13.1221 19.3906C13.2814 19.3906 13.3877 19.4969 13.3877 19.6562C13.3877 23.7469 16.7346 27.0938 20.8252 27.0938H26.0314C26.1908 27.0938 26.2971 27.2 26.2971 27.3594C26.2971 27.5188 26.1908 27.625 26.0314 27.625Z" fill="#34444C"/>
<path d="M28.1562 29.4844C29.3299 29.4844 30.2812 28.533 30.2812 27.3594C30.2812 26.1858 29.3299 25.2344 28.1562 25.2344C26.9826 25.2344 26.0312 26.1858 26.0312 27.3594C26.0312 28.533 26.9826 29.4844 28.1562 29.4844Z" fill="#34444C"/>
<path d="M28.1562 28.4219C28.7431 28.4219 29.2188 27.9462 29.2188 27.3594C29.2188 26.7726 28.7431 26.2969 28.1562 26.2969C27.5694 26.2969 27.0938 26.7726 27.0938 27.3594C27.0938 27.9462 27.5694 28.4219 28.1562 28.4219Z" fill="#6B777C"/>
</svg>
