<svg width="34" height="31" viewBox="0 0 34 31" fill="none" xmlns="http://www.w3.org/2000/svg">
<path d="M31.1667 30.1785H2.83333C1.24667 30.1785 0 28.9245 0 27.3284V7.94776C0 6.3517 1.24667 5.09766 2.83333 5.09766H31.1667C32.7533 5.09766 34 6.3517 34 7.94776V27.3284C34 28.9245 32.7533 30.1785 31.1667 30.1785Z" fill="#81D4FA"/>
<path d="M31.1663 5.09766H29.4663C31.053 5.09766 32.2996 6.3517 32.2996 7.94776V27.3284C32.2996 28.9245 31.053 30.1785 29.4663 30.1785H31.1663C32.753 30.1785 33.9996 28.9245 33.9996 27.3284V7.94776C33.9996 6.3517 32.753 5.09766 31.1663 5.09766Z" fill="#4FC3F7"/>
<path d="M2.83333 5.09766H4.53333C2.94667 5.09766 1.7 6.3517 1.7 7.94776V27.3284C1.7 28.9245 2.94667 30.1785 4.53333 30.1785H2.83333C1.24667 30.1785 0 28.9245 0 27.3284V7.94776C0 6.3517 1.24667 5.09766 2.83333 5.09766Z" fill="#B3E5FC"/>
<path d="M30.5999 26.4736C30.5999 27.2716 29.9766 27.8986 29.1832 27.8986H4.81657C4.02324 27.8986 3.3999 27.2716 3.3999 26.4736V8.80298C3.3999 8.00495 4.02324 7.37793 4.81657 7.37793H29.1832C29.9766 7.37793 30.5999 8.00495 30.5999 8.80298V26.4736Z" fill="#FAFAFA"/>
<path d="M29.1831 7.37793H28.0498C28.8431 7.37793 29.4665 8.00495 29.4665 8.80298V26.4736C29.4665 27.2716 28.8431 27.8986 28.0498 27.8986H29.1831C29.9765 27.8986 30.5998 27.2716 30.5998 26.4736V8.80298C30.5998 8.00495 29.9765 7.37793 29.1831 7.37793Z" fill="#ECEFF1"/>
<path d="M4.81657 7.37793H5.9499C5.15657 7.37793 4.53324 8.00495 4.53324 8.80298V26.4736C4.53324 27.2716 5.15657 27.8986 5.9499 27.8986H4.81657C4.02324 27.8986 3.3999 27.2716 3.3999 26.4736V8.80298C3.3999 8.00495 4.02324 7.37793 4.81657 7.37793Z" fill="white"/>
<path d="M22.6671 3.95772H20.4004C20.4004 2.07665 18.8704 0.537598 17.0004 0.537598C15.1304 0.537598 13.6004 2.07665 13.6004 3.95772H11.3338C10.9938 3.95772 10.7671 4.18572 10.7671 4.52774V7.94785C10.7671 8.28987 10.9938 8.51787 11.3338 8.51787H22.6671C23.0071 8.51787 23.2338 8.28987 23.2338 7.94785V4.52774C23.2338 4.18572 23.0071 3.95772 22.6671 3.95772ZM17.0004 5.09776C16.3771 5.09776 15.8671 4.58474 15.8671 3.95772C15.8671 3.33069 16.3771 2.81768 17.0004 2.81768C17.6238 2.81768 18.1338 3.33069 18.1338 3.95772C18.1338 4.58474 17.6238 5.09776 17.0004 5.09776Z" fill="#1976D2"/>
<path d="M22.667 3.95752H21.5337C21.8737 3.95752 22.1004 4.18553 22.1004 4.52754V7.94766C22.1004 8.28967 21.8737 8.51768 21.5337 8.51768H22.667C23.007 8.51768 23.2337 8.28967 23.2337 7.94766V4.52754C23.2337 4.18553 23.007 3.95752 22.667 3.95752Z" fill="#1565C0"/>
<path d="M11.3338 3.95752H12.4671C12.1271 3.95752 11.9004 4.18553 11.9004 4.52754V7.94766C11.9004 8.28967 12.1271 8.51768 12.4671 8.51768H11.3338C10.9938 8.51768 10.7671 8.28967 10.7671 7.94766V4.52754C10.7671 4.18553 10.9938 3.95752 11.3338 3.95752Z" fill="#1E88E5"/>
<path d="M24.6497 14.2179H18.4164C17.9631 14.2179 17.5664 13.8189 17.5664 13.3628C17.5664 12.9068 17.9631 12.5078 18.4164 12.5078H24.6497C25.1031 12.5078 25.4997 12.9068 25.4997 13.3628C25.4997 13.8189 25.1031 14.2179 24.6497 14.2179Z" fill="#0080FF"/>
<path d="M26.9164 17.6378H18.4164C17.9631 17.6378 17.5664 17.2388 17.5664 16.7828C17.5664 16.3267 17.9631 15.9277 18.4164 15.9277H26.9164C27.3697 15.9277 27.7664 16.3267 27.7664 16.7828C27.7664 17.2388 27.3697 17.6378 26.9164 17.6378Z" fill="#0080FF"/>
<path d="M26.9164 22.7682H18.4164C17.9631 22.7682 17.5664 22.3692 17.5664 21.9131C17.5664 21.4571 17.9631 21.0581 18.4164 21.0581H26.9164C27.3697 21.0581 27.7664 21.4571 27.7664 21.9131C27.7664 22.3692 27.3697 22.7682 26.9164 22.7682Z" fill="#0080FF"/>
<path d="M13.8829 22.7682H7.64958C6.85624 22.7682 6.23291 22.1411 6.23291 21.3431V13.9329C6.23291 13.1348 6.85624 12.5078 7.64958 12.5078H13.8829C14.6762 12.5078 15.2996 13.1348 15.2996 13.9329V21.3431C15.2996 22.1411 14.6762 22.7682 13.8829 22.7682Z" fill="#7368FE"/>
<path d="M10.7667 19.3482C12.0185 19.3482 13.0333 18.3274 13.0333 17.0682C13.0333 15.8089 12.0185 14.7881 10.7667 14.7881C9.51482 14.7881 8.5 15.8089 8.5 17.0682C8.5 18.3274 9.51482 19.3482 10.7667 19.3482Z" fill="#FFBEB6"/>
<path d="M10.7669 19.3481C9.18026 19.3481 7.93359 20.6022 7.93359 22.1982V22.7683H13.6003V22.1982C13.6003 20.6022 12.3536 19.3481 10.7669 19.3481Z" fill="#A1FFC7"/>
</svg>
