<svg xmlns="http://www.w3.org/2000/svg" fill="none" viewBox="0 0 1440 482">
  <g opacity=".1" stroke="#185ADB">
    <path d="M-23 481c51.925-51.167 212.619-150.6 439.99-139 284.214 14.5 642.71 41 786.62-101.5C1318.74 126.5 1423.17 82.667 1461 75"/>
    <path d="M-23 444c51.925-51.167 212.619-150.6 439.99-139 284.214 14.5 642.71 41 786.62-101.5C1318.74 89.5 1423.17 45.667 1461 38"/>
    <path d="M-23 407c51.925-51.167 212.619-150.6 439.99-139 284.214 14.5 642.71 41 786.62-101.5C1318.74 52.5 1423.17 8.667 1461 1"/>
  </g>
</svg>
