<svg xmlns="http://www.w3.org/2000/svg" fill="none" viewBox="0 0 600 521">
  <rect width="661" height="521" rx="28.176" fill="#15171C"/>
  <path d="M169.805 307.037h1.709V319h-1.965v-9.861l-2.41.683-.479-1.674 3.145-1.111zm11.828 10.493c-.821 1.128-1.971 1.692-3.453 1.692-1.481 0-2.637-.564-3.469-1.692-.82-1.128-1.23-2.632-1.23-4.512 0-1.88.41-3.384 1.23-4.511.832-1.128 1.988-1.692 3.469-1.692 1.482 0 2.632.564 3.453 1.692.831 1.127 1.247 2.631 1.247 4.511 0 1.88-.416 3.384-1.247 4.512zm-3.453-.222c.889 0 1.567-.37 2.034-1.111.467-.74.701-1.8.701-3.179 0-1.378-.234-2.438-.701-3.178-.467-.741-1.145-1.111-2.034-1.111-.877 0-1.555.37-2.033 1.111-.467.74-.701 1.8-.701 3.178 0 1.379.234 2.439.701 3.179.478.741 1.156 1.111 2.033 1.111zm-76.77 87.461c-1.109 1.018-2.545 1.527-4.307 1.527-1.762 0-3.206-.509-4.33-1.527-1.109-1.033-1.663-2.407-1.663-4.124v-10.596h2.119v10.505c0 1.124.334 2.02 1.003 2.689.668.653 1.625.98 2.87.98 1.246 0 2.203-.327 2.872-.98.668-.669 1.003-1.565 1.003-2.689v-10.505h2.096v10.596c0 1.717-.555 3.091-1.663 4.124zm6.296-7.086c0 .44.22.797.661 1.071.44.258.972.471 1.595.638.623.152 1.246.334 1.869.547a3.501 3.501 0 011.595 1.048c.44.486.66 1.116.66 1.891 0 1.033-.402 1.861-1.207 2.484-.79.623-1.808.934-3.054.934-1.109 0-2.058-.243-2.848-.729s-1.352-1.132-1.686-1.937l1.709-.98c.182.547.524.98 1.025 1.299.501.319 1.101.479 1.8.479.654 0 1.193-.122 1.618-.365.426-.258.638-.653.638-1.185 0-.44-.22-.79-.661-1.048-.44-.273-.972-.486-1.595-.638a28.906 28.906 0 01-1.868-.57 3.747 3.747 0 01-1.595-1.048c-.441-.486-.661-1.109-.661-1.869 0-.987.38-1.8 1.139-2.438.775-.638 1.74-.957 2.894-.957.927 0 1.747.213 2.461.638.729.41 1.276.988 1.641 1.732l-1.664.934c-.41-.972-1.223-1.458-2.438-1.458-.562 0-1.04.137-1.435.41-.395.258-.593.631-.593 1.117zm9.806 3.532c.198 1.018.661 1.807 1.39 2.37.745.562 1.656.843 2.735.843 1.504 0 2.597-.555 3.281-1.664l1.686.957c-1.109 1.717-2.78 2.575-5.013 2.575-1.808 0-3.281-.562-4.421-1.686-1.124-1.139-1.686-2.575-1.686-4.307 0-1.716.555-3.144 1.664-4.284 1.109-1.139 2.544-1.709 4.306-1.709 1.671 0 3.031.593 4.079 1.778 1.064 1.169 1.595 2.582 1.595 4.238 0 .289-.022.585-.068.889h-9.548zm3.942-5.036c-1.063 0-1.944.304-2.643.911-.699.593-1.132 1.39-1.299 2.393h7.611c-.167-1.079-.592-1.899-1.276-2.461-.684-.562-1.481-.843-2.393-.843zm9.936.342c.653-1.413 1.838-2.12 3.555-2.12v2.074c-.973-.046-1.808.213-2.507.775-.699.562-1.048 1.466-1.048 2.711V406h-1.983v-11.394h1.983v1.915zm6.781 1.162c0 .44.22.797.66 1.071.441.258.973.471 1.595.638.623.152 1.246.334 1.869.547a3.49 3.49 0 011.595 1.048c.441.486.661 1.116.661 1.891 0 1.033-.403 1.861-1.208 2.484-.79.623-1.808.934-3.053.934-1.109 0-2.059-.243-2.849-.729s-1.352-1.132-1.686-1.937l1.709-.98a2.4 2.4 0 001.026 1.299c.501.319 1.101.479 1.8.479.653 0 1.192-.122 1.618-.365.425-.258.638-.653.638-1.185 0-.44-.221-.79-.661-1.048-.441-.273-.972-.486-1.595-.638a28.933 28.933 0 01-1.869-.57 3.753 3.753 0 01-1.595-1.048c-.44-.486-.661-1.109-.661-1.869 0-.987.38-1.8 1.14-2.438.774-.638 1.739-.957 2.894-.957.926 0 1.747.213 2.461.638.729.41 1.276.988 1.64 1.732l-1.663.934c-.41-.972-1.223-1.458-2.438-1.458-.563 0-1.041.137-1.436.41-.395.258-.592.631-.592 1.117z" fill="#EEE"/>
  <path d="M91.78 425.332h4.057V449h-4.666v-18.731l-4.463 1.251-1.15-3.99 6.222-2.198zm17.132 24.141c-2.952 0-5.274-1.115-6.965-3.347-1.668-2.254-2.502-5.241-2.502-8.96 0-3.719.834-6.695 2.502-8.926 1.691-2.254 4.013-3.381 6.965-3.381 2.976 0 5.297 1.127 6.965 3.381 1.669 2.231 2.503 5.207 2.503 8.926 0 3.719-.834 6.706-2.503 8.96-1.668 2.232-3.989 3.347-6.965 3.347zm-3.584-6.525c.812 1.307 2.007 1.961 3.584 1.961 1.578 0 2.773-.665 3.584-1.995.834-1.33 1.251-3.246 1.251-5.748 0-2.524-.417-4.452-1.251-5.782-.811-1.33-2.006-1.994-3.584-1.994-1.577 0-2.772.664-3.584 1.994-.811 1.33-1.217 3.258-1.217 5.782 0 2.525.406 4.452 1.217 5.782zM148.704 449h-5.376l-8.453-11.09V449h-4.666v-23.668h4.666v10.448l8.115-10.448h5.376l-8.757 11.496L148.704 449z" fill="#185ADB"/>
  <path d="M270.293 406l-1.299-3.578h-7.178L260.517 406h-2.256l5.947-15.951h2.393L272.549 406h-2.256zm-7.748-5.56h5.72l-2.872-7.862-2.848 7.862zm20.847-10.391h1.983V406h-1.983v-1.96c-.987 1.504-2.423 2.256-4.307 2.256-1.595 0-2.954-.577-4.079-1.732-1.124-1.169-1.686-2.59-1.686-4.261 0-1.671.562-3.084 1.686-4.238 1.125-1.17 2.484-1.755 4.079-1.755 1.884 0 3.32.752 4.307 2.256v-6.517zm-4.056 14.333c1.154 0 2.119-.387 2.894-1.162.775-.79 1.162-1.762 1.162-2.917 0-1.154-.387-2.119-1.162-2.894-.775-.79-1.74-1.185-2.894-1.185-1.139 0-2.096.395-2.871 1.185-.775.775-1.162 1.74-1.162 2.894 0 1.155.387 2.127 1.162 2.917.775.775 1.732 1.162 2.871 1.162zm22.441 1.914c-2.415 0-4.413-.797-5.993-2.392-1.565-1.596-2.347-3.555-2.347-5.879 0-2.325.782-4.284 2.347-5.88 1.58-1.595 3.578-2.392 5.993-2.392 1.458 0 2.795.349 4.011 1.048 1.23.699 2.187 1.641 2.871 2.826l-1.846 1.071c-.456-.882-1.139-1.58-2.051-2.097-.896-.532-1.891-.797-2.985-.797-1.838 0-3.342.592-4.512 1.777-1.154 1.185-1.732 2.666-1.732 4.444 0 1.762.578 3.235 1.732 4.42 1.17 1.185 2.674 1.778 4.512 1.778 1.094 0 2.089-.259 2.985-.775.912-.532 1.595-1.231 2.051-2.097l1.846 1.049c-.669 1.185-1.618 2.134-2.849 2.848-1.23.699-2.575 1.048-4.033 1.048zm9.143-.296v-16.635h1.983V406h-1.983zm6.01-13.467c-.38 0-.699-.129-.957-.388a1.272 1.272 0 01-.387-.934c0-.364.129-.676.387-.934.258-.274.577-.41.957-.41.365 0 .676.136.934.41.259.258.388.57.388.934 0 .365-.129.676-.388.934a1.27 1.27 0 01-.934.388zM315.927 406v-11.394h1.983V406h-1.983zm10.362.296c-1.716 0-3.144-.569-4.284-1.709-1.139-1.154-1.709-2.582-1.709-4.284 0-1.701.57-3.122 1.709-4.261 1.14-1.155 2.568-1.732 4.284-1.732 1.125 0 2.135.274 3.031.821a5.005 5.005 0 012.005 2.164l-1.663.957a3.365 3.365 0 00-1.345-1.458c-.592-.365-1.268-.547-2.028-.547-1.139 0-2.096.387-2.871 1.162-.759.775-1.139 1.74-1.139 2.894 0 1.14.38 2.097 1.139 2.871.775.775 1.732 1.163 2.871 1.163.76 0 1.444-.175 2.051-.525a3.653 3.653 0 001.39-1.458l1.686.98a5.617 5.617 0 01-2.096 2.165c-.911.531-1.922.797-3.031.797zm16.724-.296h-2.461l-5.196-5.401V406h-1.982v-15.951h1.982v9.593l4.922-5.036h2.552l-5.446 5.515 5.629 5.879zm2.685-8.317c0 .44.22.797.66 1.071.441.258.973.471 1.596.638.622.152 1.245.334 1.868.547a3.49 3.49 0 011.595 1.048c.441.486.661 1.116.661 1.891 0 1.033-.403 1.861-1.208 2.484-.79.623-1.808.934-3.053.934-1.109 0-2.059-.243-2.849-.729s-1.352-1.132-1.686-1.937l1.709-.98a2.4 2.4 0 001.026 1.299c.501.319 1.101.479 1.8.479.653 0 1.192-.122 1.618-.365.425-.258.638-.653.638-1.185 0-.44-.221-.79-.661-1.048-.441-.273-.972-.486-1.595-.638a28.933 28.933 0 01-1.869-.57 3.753 3.753 0 01-1.595-1.048c-.44-.486-.661-1.109-.661-1.869 0-.987.38-1.8 1.14-2.438.774-.638 1.739-.957 2.894-.957.926 0 1.747.213 2.461.638.729.41 1.276.988 1.64 1.732l-1.663.934c-.41-.972-1.223-1.458-2.438-1.458-.562 0-1.041.137-1.436.41-.395.258-.592.631-.592 1.117z" fill="#EEE"/>
  <path d="M280.78 425.332h4.057V449h-4.666v-18.731l-4.463 1.251-1.15-3.99 6.222-2.198zm17.132 24.141c-2.952 0-5.274-1.115-6.965-3.347-1.668-2.254-2.502-5.241-2.502-8.96 0-3.719.834-6.695 2.502-8.926 1.691-2.254 4.013-3.381 6.965-3.381 2.976 0 5.297 1.127 6.965 3.381 1.669 2.231 2.503 5.207 2.503 8.926 0 3.719-.834 6.706-2.503 8.96-1.668 2.232-3.989 3.347-6.965 3.347zm-3.584-6.525c.812 1.307 2.007 1.961 3.584 1.961 1.578 0 2.773-.665 3.584-1.995.834-1.33 1.251-3.246 1.251-5.748 0-2.524-.417-4.452-1.251-5.782-.811-1.33-2.006-1.994-3.584-1.994-1.577 0-2.772.664-3.584 1.994-.811 1.33-1.217 3.258-1.217 5.782 0 2.525.406 4.452 1.217 5.782zM337.704 449h-5.376l-8.453-11.09V449h-4.666v-23.668h4.666v10.448l8.115-10.448h5.376l-8.757 11.496L337.704 449z" fill="#185ADB"/>
  <path d="M472.905 406.296c-1.489 0-2.765-.349-3.828-1.048-1.049-.699-1.785-1.656-2.211-2.871l1.823-1.048c.623 1.929 2.044 2.894 4.262 2.894 1.093 0 1.929-.221 2.506-.661.577-.456.866-1.056.866-1.8 0-.76-.289-1.33-.866-1.709-.577-.38-1.542-.783-2.894-1.208a71.712 71.712 0 01-1.527-.501c-.349-.137-.79-.335-1.321-.593-.517-.273-.904-.547-1.162-.82-.259-.289-.494-.661-.707-1.117a3.87 3.87 0 01-.296-1.549c0-1.383.486-2.477 1.458-3.282.973-.82 2.158-1.23 3.555-1.23 1.261 0 2.355.319 3.281.957a5.931 5.931 0 012.12 2.529l-1.778 1.026c-.683-1.641-1.891-2.461-3.623-2.461-.866 0-1.565.212-2.096.638-.532.425-.798 1.002-.798 1.731 0 .699.251 1.231.752 1.596.501.364 1.367.744 2.598 1.139.44.137.752.235.934.296.182.061.463.167.843.319.395.152.684.274.866.365.182.091.426.22.729.387.319.167.555.327.707.479.152.152.326.341.524.569.213.213.364.433.456.661.091.228.167.494.227.798.076.288.114.6.114.934 0 1.398-.508 2.514-1.526 3.35-1.018.82-2.347 1.23-3.988 1.23zm9.476-5.081c.197 1.018.661 1.807 1.39 2.37.744.562 1.656.843 2.734.843 1.504 0 2.598-.555 3.282-1.664l1.686.957c-1.109 1.717-2.78 2.575-5.013 2.575-1.808 0-3.282-.562-4.421-1.686-1.124-1.139-1.686-2.575-1.686-4.307 0-1.716.554-3.144 1.663-4.284 1.109-1.139 2.545-1.709 4.307-1.709 1.671 0 3.031.593 4.079 1.778 1.063 1.169 1.595 2.582 1.595 4.238 0 .289-.023.585-.068.889h-9.548zm3.942-5.036c-1.063 0-1.944.304-2.643.911-.699.593-1.132 1.39-1.299 2.393h7.611c-.167-1.079-.593-1.899-1.276-2.461-.684-.562-1.482-.843-2.393-.843zm9.217 1.504c0 .44.22.797.661 1.071.44.258.972.471 1.595.638.623.152 1.245.334 1.868.547a3.49 3.49 0 011.595 1.048c.441.486.661 1.116.661 1.891 0 1.033-.402 1.861-1.207 2.484-.79.623-1.808.934-3.054.934-1.109 0-2.058-.243-2.848-.729s-1.352-1.132-1.687-1.937l1.709-.98c.183.547.525.98 1.026 1.299.501.319 1.101.479 1.8.479.653 0 1.193-.122 1.618-.365.425-.258.638-.653.638-1.185 0-.44-.22-.79-.661-1.048-.44-.273-.972-.486-1.595-.638a28.715 28.715 0 01-1.868-.57 3.756 3.756 0 01-1.596-1.048c-.44-.486-.66-1.109-.66-1.869 0-.987.379-1.8 1.139-2.438.775-.638 1.739-.957 2.894-.957.927 0 1.747.213 2.461.638.729.41 1.276.988 1.641 1.732l-1.664.934c-.41-.972-1.223-1.458-2.438-1.458-.562 0-1.041.137-1.436.41-.395.258-.592.631-.592 1.117zm9.724 0c0 .44.221.797.661 1.071.441.258.973.471 1.595.638.623.152 1.246.334 1.869.547a3.496 3.496 0 011.595 1.048c.441.486.661 1.116.661 1.891 0 1.033-.403 1.861-1.208 2.484-.79.623-1.808.934-3.053.934-1.109 0-2.059-.243-2.849-.729s-1.352-1.132-1.686-1.937l1.709-.98c.182.547.524.98 1.025 1.299.502.319 1.102.479 1.801.479.653 0 1.192-.122 1.618-.365.425-.258.638-.653.638-1.185 0-.44-.221-.79-.661-1.048-.441-.273-.972-.486-1.595-.638a28.933 28.933 0 01-1.869-.57 3.753 3.753 0 01-1.595-1.048c-.441-.486-.661-1.109-.661-1.869 0-.987.38-1.8 1.14-2.438.774-.638 1.739-.957 2.894-.957.926 0 1.747.213 2.461.638.729.41 1.276.988 1.64 1.732l-1.663.934c-.41-.972-1.223-1.458-2.438-1.458-.563 0-1.041.137-1.436.41-.395.258-.593.631-.593 1.117zm9.619-5.15a1.3 1.3 0 01-.957-.388 1.272 1.272 0 01-.387-.934c0-.364.129-.676.387-.934.259-.274.578-.41.957-.41.365 0 .676.136.935.41.258.258.387.57.387.934 0 .365-.129.676-.387.934-.259.259-.57.388-.935.388zM513.881 406v-11.394h1.982V406h-1.982zm14.623-1.436c-1.17 1.155-2.59 1.732-4.261 1.732-1.671 0-3.092-.577-4.261-1.732-1.155-1.154-1.732-2.575-1.732-4.261s.577-3.106 1.732-4.261c1.169-1.155 2.59-1.732 4.261-1.732 1.671 0 3.091.577 4.261 1.732s1.755 2.575 1.755 4.261-.585 3.107-1.755 4.261zm-4.261-.205c1.139 0 2.096-.387 2.871-1.162.775-.775 1.162-1.739 1.162-2.894 0-1.154-.387-2.119-1.162-2.894-.775-.775-1.732-1.162-2.871-1.162-1.124 0-2.074.387-2.849 1.162-.774.775-1.162 1.74-1.162 2.894 0 1.155.388 2.119 1.162 2.894.775.775 1.725 1.162 2.849 1.162zm14.027-10.049c1.337 0 2.408.426 3.213 1.276.805.836 1.207 1.975 1.207 3.418V406h-1.982v-6.882c0-.926-.251-1.64-.752-2.142-.501-.516-1.193-.774-2.074-.774-.987 0-1.785.311-2.392.934-.608.607-.912 1.549-.912 2.825V406h-1.982v-11.394h1.982v1.641c.805-1.291 2.036-1.937 3.692-1.937z" fill="#EEE"/>
  <path d="M480.28 425.332h4.057V449h-4.666v-18.731l-4.463 1.251-1.15-3.99 6.222-2.198zm17.132 24.141c-2.952 0-5.274-1.115-6.965-3.347-1.668-2.254-2.502-5.241-2.502-8.96 0-3.719.834-6.695 2.502-8.926 1.691-2.254 4.013-3.381 6.965-3.381 2.976 0 5.297 1.127 6.965 3.381 1.669 2.231 2.503 5.207 2.503 8.926 0 3.719-.834 6.706-2.503 8.96-1.668 2.232-3.989 3.347-6.965 3.347zm-3.584-6.525c.812 1.307 2.007 1.961 3.584 1.961 1.578 0 2.773-.665 3.584-1.995.834-1.33 1.251-3.246 1.251-5.748 0-2.524-.417-4.452-1.251-5.782-.811-1.33-2.006-1.994-3.584-1.994-1.577 0-2.772.664-3.584 1.994-.811 1.33-1.217 3.258-1.217 5.782 0 2.525.406 4.452 1.217 5.782zM537.204 449h-5.376l-8.453-11.09V449h-4.666v-23.668h4.666v10.448l8.115-10.448h5.376l-8.757 11.496L537.204 449z" fill="#185ADB"/>
  <path d="M49.687 276.037h1.71V288H49.43v-9.861l-2.41.683-.478-1.674 3.144-1.111zM44.007 232v-1.538l4.17-4.256c1.014-1.014 1.521-1.891 1.521-2.632 0-.581-.177-1.031-.53-1.35-.342-.33-.78-.495-1.316-.495-1.002 0-1.743.495-2.222 1.487l-1.657-.975c.376-.797.906-1.401 1.59-1.811a4.335 4.335 0 012.272-.615c1.048 0 1.948.33 2.7.991.752.661 1.128 1.561 1.128 2.7 0 1.219-.678 2.518-2.033 3.897l-2.7 2.7h4.956V232h-7.88zm5.086-63.075c.866.205 1.567.609 2.103 1.213.547.592.82 1.339.82 2.239 0 1.196-.405 2.136-1.213 2.82-.81.683-1.8 1.025-2.974 1.025-.912 0-1.732-.211-2.461-.632-.718-.422-1.236-1.037-1.556-1.846l1.675-.974c.354 1.025 1.134 1.538 2.342 1.538.683 0 1.225-.171 1.623-.513.4-.353.599-.826.599-1.418 0-.593-.2-1.06-.599-1.402-.398-.341-.94-.512-1.623-.512h-.445l-.786-1.18 2.58-3.4h-5.007v-1.846h7.35v1.675l-2.428 3.213zm3.572-53.907v1.829h-1.367V119h-1.983v-2.153h-5.879v-1.829l4.119-7.981h2.136l-4.119 7.981h3.743v-3.11h1.983v3.11h1.367zm-4.622-59.469c1.14 0 2.102.341 2.889 1.025.786.672 1.179 1.607 1.179 2.803s-.405 2.136-1.213 2.82c-.81.683-1.8 1.025-2.974 1.025-.946 0-1.783-.216-2.513-.65-.729-.444-1.247-1.082-1.555-1.913l1.692-.974c.32 1.082 1.111 1.623 2.376 1.623.672 0 1.208-.17 1.606-.513.41-.353.615-.826.615-1.418 0-.593-.199-1.06-.598-1.402-.398-.341-.928-.512-1.59-.512h-3.486l.462-6.426h6.665v1.846h-4.853l-.206 2.666h1.504zM332.208 319v-1.538l4.17-4.256c1.014-1.014 1.521-1.891 1.521-2.632 0-.581-.177-1.031-.53-1.35-.342-.33-.78-.495-1.316-.495-1.002 0-1.743.495-2.222 1.487l-1.657-.975c.376-.797.905-1.401 1.589-1.811a4.335 4.335 0 012.273-.615c1.048 0 1.948.33 2.7.991.752.661 1.128 1.561 1.128 2.7 0 1.219-.678 2.518-2.033 3.897l-2.701 2.7h4.957V319h-7.879zm17.185-1.47c-.821 1.128-1.971 1.692-3.453 1.692-1.481 0-2.637-.564-3.469-1.692-.82-1.128-1.23-2.632-1.23-4.512 0-1.88.41-3.384 1.23-4.511.832-1.128 1.988-1.692 3.469-1.692 1.482 0 2.632.564 3.453 1.692.831 1.127 1.247 2.631 1.247 4.511 0 1.88-.416 3.384-1.247 4.512zm-3.453-.222c.889 0 1.567-.37 2.034-1.111.467-.74.701-1.8.701-3.179 0-1.378-.234-2.438-.701-3.178-.467-.741-1.145-1.111-2.034-1.111-.877 0-1.555.37-2.033 1.111-.467.74-.701 1.8-.701 3.178 0 1.379.234 2.439.701 3.179.478.741 1.156 1.111 2.033 1.111zm155.771-5.383c.866.205 1.567.609 2.102 1.213.547.592.82 1.339.82 2.239 0 1.196-.404 2.136-1.213 2.82-.809.683-1.8 1.025-2.974 1.025-.911 0-1.732-.211-2.461-.632-.718-.422-1.236-1.037-1.555-1.846l1.675-.974c.353 1.025 1.134 1.538 2.341 1.538.684 0 1.225-.171 1.624-.513.399-.353.598-.826.598-1.418 0-.593-.199-1.06-.598-1.402-.399-.341-.94-.512-1.624-.512h-.444l-.786-1.18 2.58-3.4h-5.007v-1.846h7.349v1.675l-2.427 3.213zm12.357 5.605c-.82 1.128-1.971 1.692-3.452 1.692-1.481 0-2.638-.564-3.47-1.692-.82-1.128-1.23-2.632-1.23-4.512 0-1.88.41-3.384 1.23-4.511.832-1.128 1.989-1.692 3.47-1.692s2.632.564 3.452 1.692c.832 1.127 1.248 2.631 1.248 4.511 0 1.88-.416 3.384-1.248 4.512zm-3.452-.222c.888 0 1.566-.37 2.033-1.111.468-.74.701-1.8.701-3.179 0-1.378-.233-2.438-.701-3.178-.467-.741-1.145-1.111-2.033-1.111-.878 0-1.555.37-2.034 1.111-.467.74-.701 1.8-.701 3.178 0 1.379.234 2.439.701 3.179.479.741 1.156 1.111 2.034 1.111z" fill="#EEE"/>
  <path d="M85 281.622h576M85 225.297h576M85 168.973h576M85 112.648h576M85 56.324h576" opacity=".1" stroke="#fff" stroke-width="2.848"/>
  <path opacity=".5" d="M85 152.522h80.518c52.479 0 60.098-70.592 112.448-74.309 81.071-5.756 67.873 166.669 147.154 148.618 50.112-11.409 42.071-87.256 93.012-93.937 66.148-8.677 55.347 108.884 120.778 121.978 7.735 1.549 14.804 1.459 21.309 0" stroke="#82ACFF" stroke-width="2.848"/>
  <circle cx="175" cy="152" r="6" fill="#185ADB"/>
  <circle cx="279" cy="79" r="6" fill="#185ADB"/>
  <circle cx="415" cy="228" r="6" fill="#185ADB"/>
  <circle cx="524.5" cy="132.5" r="5.5" fill="#185ADB"/>
</svg>
