<svg xmlns="http://www.w3.org/2000/svg" x="0" y="0" viewBox="0 0 64 64">
  <path d="M48.098 3.453c-1.035 0-2.07.375-2.828 1.133l-4.24 4.242a2 2 0 00-2.828 0l-5.656 5.656c-.379.38-.59.883-.59 1.418 0 .532.211 1.036.59 1.41l.047.051L5.516 44.398a3.009 3.009 0 00-.868 1.883l-.675 8.395-.703 4.922a.992.992 0 00.285.851.99.99 0 00.703.29c.05 0 .097 0 .144-.009l4.918-.699 8.446-.625a2.98 2.98 0 001.898-.867L46.742 31.5c.371.348.848.543 1.36.543.535 0 1.035-.207 1.414-.586l5.656-5.656a2 2 0 000-2.828l4.246-4.243a3.986 3.986 0 001.168-2.832 3.965 3.965 0 00-1.172-2.828L50.93 4.586c-.754-.758-1.793-1.133-2.832-1.133zm0 1.98A2 2 0 0149.516 6L58 14.484c.379.38.586.88.586 1.414 0 .536-.207 1.04-.586 1.415l-4.242 4.246L42.44 10.242 46.687 6a1.981 1.981 0 011.41-.566zm-8.485 4.81l.711.706 12.727 12.727.707.71-1.414 1.41a1 1 0 00-1.414 0l-1.414 1.419a1 1 0 000 1.414l-1.414 1.414-14.145-14.145 1.414-1.414c.195.196.45.293.707.293a.993.993 0 00.707-.293l1.418-1.414a1 1 0 000-1.414zm1.418 4.655a.993.993 0 00-.707.293l-1.418 1.414a1 1 0 00.707 1.707c.258 0 .516-.097.711-.292l1.41-1.415a.993.993 0 000-1.414.991.991 0 00-.703-.293zm3.532 3.54a.975.975 0 00-.704.292l-1.418 1.41a1.004 1.004 0 000 1.419 1.015 1.015 0 001.418 0l1.41-1.418a.988.988 0 000-1.41.978.978 0 00-.706-.294zm-10.551.34l11.312 11.316-26.297 26.254-.953-4.766 16.59-16.59a1 1 0 10-1.414-1.414L16.656 50.172l-2.355-.473-.473-2.36 13.766-13.76a.997.997 0 000-1.419.995.995 0 00-1.41 0L12.418 45.926l-4.664-.93zm14.09 3.19a.982.982 0 00-.707.298l-1.415 1.41a1.004 1.004 0 00.708 1.71c.257 0 .511-.1.707-.292l1.414-1.418a.995.995 0 000-1.41.982.982 0 00-.707-.297zm-15.555 4.247c-.258 0-.512.098-.707.289l-2.828 2.828a1.003 1.003 0 00.707 1.71c.254.001.511-.1.703-.292l2.828-2.828a.997.997 0 000-1.418.971.971 0 00-.703-.29zM6.609 46.805l5.286 1.054.574 2.887c.082.395.39.703.785.781l2.883.578 1.066 5.336-7.61.559L6 54.41z"/>
</svg>
