<svg fill="#007031" version="1.1" xmlns="http://www.w3.org/2000/svg" viewBox="0 0 229.5 229.5" xml:space="preserve" stroke="#007031">
  <path d="M214.419 32.12A7.502 7.502 0 00209 25.927L116.76.275a7.496 7.496 0 00-4.02 0L20.5 25.927a7.5 7.5 0 00-5.419 6.193c-.535 3.847-12.74 94.743 18.565 139.961 31.268 45.164 77.395 56.738 79.343 57.209a7.484 7.484 0 003.522 0c1.949-.471 48.076-12.045 79.343-57.209 31.305-45.217 19.1-136.113 18.565-139.961zm-40.186 53.066l-62.917 62.917c-1.464 1.464-3.384 2.197-5.303 2.197s-3.839-.732-5.303-2.197l-38.901-38.901a7.497 7.497 0 010-10.606l7.724-7.724a7.5 7.5 0 0110.606 0l25.874 25.874 49.89-49.891a7.497 7.497 0 0110.606 0l7.724 7.724a7.5 7.5 0 010 10.607z"/>
</svg>
