<svg version="1.1" xmlns="http://www.w3.org/2000/svg" viewBox="0 0 512 512" xml:space="preserve" fill="#000">
  <g fill="#fde5a2">
    <path d="M377.149 491.668l-26.64-26.64-73.384 14.677H145.033l-81.136-81.136c-8.272-8.272-8.102-21.791.511-29.848 8.239-7.706 21.25-7.098 29.227.879l51.399 51.399 95.399-22.015 29.353-29.353c32.423-32.423 84.991-32.423 117.414 0l55.994 55.994c5.551 5.551 5.551 14.552 0 20.103l-45.942 45.942c-5.551 5.55-14.551 5.55-20.103-.002z"/>
    <path d="M161.991 398.118l78.166.587v41.513l-78.477-.59c-11.463-.087-20.686-9.449-20.6-20.912.086-11.461 9.448-20.684 20.911-20.598z"/>
  </g>
  <path d="M240.155 423.137v17.081l-78.477-.59c-9.946-.075-18.195-7.137-20.151-16.491h98.628z" fill="#f2c127"/>
  <path d="M63.918 369.234l88.455 88.455h132.091l74.912-20.431a10.38 10.38 0 0110.069 2.674l39.771 39.771-11.963 11.963c-5.551 5.551-14.552 5.551-20.103 0l-26.64-26.64-73.384 14.677H145.034l-81.137-81.136c-8.104-8.103-8.081-21.226.021-29.333z" fill="#fdd042"/>
  <path d="M502.342 308.74H9.658c-5.334 0-9.658-4.325-9.658-9.658V25.826c0-5.334 4.325-9.658 9.658-9.658h492.683c5.334 0 9.658 4.325 9.658 9.658v273.255c.001 5.335-4.324 9.659-9.657 9.659z" fill="#aff0e8"/>
  <path d="M36.571 308.74H9.658c-5.334 0-9.658-4.325-9.658-9.658V25.826c0-5.334 4.325-9.658 9.658-9.658h26.913V308.74z" fill="#74dbc9"/>
  <path d="M420.571 52.74H91.429c0 30.297-24.56 54.857-54.857 54.857v109.714c30.297 0 54.857 24.56 54.857 54.857h329.143c0-30.297 24.56-54.857 54.857-54.857V107.597c-30.298 0-54.858-24.56-54.858-54.857zM128 189.882c-15.149 0-27.429-12.28-27.429-27.429s12.28-27.429 27.429-27.429 27.429 12.28 27.429 27.429c0 15.15-12.28 27.429-27.429 27.429zm256 0c-15.149 0-27.429-12.28-27.429-27.429s12.28-27.429 27.429-27.429 27.429 12.28 27.429 27.429c0 15.15-12.28 27.429-27.429 27.429z" fill="#2db59f"/>
  <path d="M274.286 154.454H264v-46.857h28.571c4.735 0 8.571-3.837 8.571-8.571s-3.837-8.571-8.571-8.571H264V80.168c0-4.735-3.837-8.571-8.571-8.571s-8.571 3.837-8.571 8.571v10.286h-9.143c-14.809 0-27.429 11.477-27.429 26.286v27.429c0 14.809 12.619 27.429 27.429 27.429h9.143v46.857h-27.429c-4.735 0-8.571 3.837-8.571 8.571s3.837 8.571 8.571 8.571h27.429v9.143c0 4.735 3.837 8.571 8.571 8.571S264 249.475 264 244.74v-9.143h10.286c14.809 0 26.286-12.619 26.286-27.429V180.74c-.001-14.81-11.477-26.286-26.286-26.286zm-36.572 0c-5.357 0-10.286-4.929-10.286-10.286V116.74c0-5.357 4.929-9.143 10.286-9.143h9.143v46.857h-9.143zm45.715 53.714c0 5.357-3.786 10.286-9.143 10.286H264v-46.857h10.286c5.357 0 9.143 3.786 9.143 9.143v27.428z" fill="#aff0e8"/>
  <path d="M402.286 107.025h-36.571a8.57 8.57 0 01-8.571-8.571 8.57 8.57 0 018.571-8.571h36.571a8.57 8.57 0 018.571 8.571 8.57 8.57 0 01-8.571 8.571zm0 128h-36.571c-4.735 0-8.571-3.837-8.571-8.571s3.837-8.571 8.571-8.571h36.571c4.735 0 8.571 3.837 8.571 8.571s-3.836 8.571-8.571 8.571zm-256-128h-36.571a8.57 8.57 0 01-8.571-8.571 8.57 8.57 0 018.571-8.571h36.571a8.57 8.57 0 018.571 8.571 8.57 8.57 0 01-8.571 8.571zm0 128h-36.571c-4.735 0-8.571-3.837-8.571-8.571s3.837-8.571 8.571-8.571h36.571c4.735 0 8.571 3.837 8.571 8.571s-3.836 8.571-8.571 8.571z" fill="#74dbc9"/>
</svg>
