<svg viewBox="0 0 1024 1024" class="icon" version="1.1" xmlns="http://www.w3.org/2000/svg" fill="#000">
  <path d="M212.9 696.2a59.3 59.3 0 10118.6 0 59.3 59.3 0 10-118.6 0z" fill="#24c25e"/>
  <path d="M392.1 485.4l-62.5-253v-.1c-.6-3-1.4-6.3-2.2-9.8-7.2-31.8-18.1-79.8 7.2-111.5 15.8-19.7 43.3-29.7 81.9-29.7v15c-33.8 0-57.4 8.1-70.2 24.1-20.8 26.1-10.9 69.8-4.3 98.8.8 3.5 1.6 6.8 2.2 9.9l62.4 252.8-14.5 3.5zm339.4-.3l-14.6-3.6 62.4-252.4c.9-4.6 2-9.5 3.1-14.6 6.6-29.7 15.6-70.4-3.8-94.6-12.6-15.7-36.6-23.7-71.5-23.7v-15c40.2 0 67.4 9.6 83.2 29.3 23.9 29.8 14 74.5 6.8 107.2-1.1 5.2-2.2 10-3.1 14.4l-.1.4-62.4 252.6zm-85.9 467.3c-22.4 0-44.1-7.9-61.5-22.6-21.3-18.1-33.6-44.6-33.6-72.6l.5-254.6h21.5l-.2 84.8h188.1c20.1 0 38.4 8.4 51.4 23.8 12.4 14.5 19.3 34.1 19.5 55 .4 39.7-20.4 82.6-58.6 120.8-33.8 33.8-76.6 58.4-111.7 64.1-5.1.9-10.2 1.3-15.4 1.3zM559 610.6l-.4 246.6c0 25.6 11.2 49.9 30.7 66.5s45.2 23.7 70.5 19.6c33.5-5.5 74.7-29.2 107.4-61.9 36.7-36.7 56.7-77.5 56.3-115-.2-19.1-6.5-36.8-17.6-49.9-11.7-13.7-27.4-21-45.3-21H572.4v5.5h180.8c40.8 0 63.4 24.3 63.7 68.4.2 33.1-18.8 71.6-51.9 105.7-30.2 31-68.7 54.6-100.5 61.5-26.1 5.7-50.6.5-69.1-14.4-19.9-16-31.2-42.4-31.2-72.3l.4-239.3H559zm13.4 98.4l-.3 140.9c0 27.5 10.3 51.5 28.2 66 16.6 13.4 38.7 17.9 62.3 12.8 30.4-6.6 67.4-29.3 96.5-59.2 31.7-32.6 49.8-69.1 49.7-100.1-.1-27.6-9.9-60.4-55.7-60.4H572.4z" fill="#454545"/>
  <path d="M557.3 709h-216v-21.5h215.8v8H349.3v5.5h208zm-285.1 19.3c-17.7 0-32.1-14.4-32.1-32.1 0-17.7 14.4-32.1 32.1-32.1s32.1 14.4 32.1 32.1c.1 17.7-14.3 32.1-32.1 32.1zm0-56.3c-13.3 0-24.1 10.8-24.1 24.1s10.8 24.1 24.1 24.1 24.1-10.8 24.1-24.1c.1-13.2-10.8-24.1-24.1-24.1z" fill="#454545"/>
  <path d="M272.2 780.7c-46.6 0-84.5-37.9-84.5-84.5s37.9-84.5 84.5-84.5 84.5 37.9 84.5 84.5c.1 46.6-37.8 84.5-84.5 84.5zm0-154.1c-38.3 0-69.5 31.2-69.5 69.5s31.2 69.5 69.5 69.5 69.5-31.2 69.5-69.5-31.1-69.5-69.5-69.5z" fill="#454545"/>
  <path d="M581.4 615.7h-38.9v-52.5h38.9v52.5zm-24-15h8.9v-22.5h-8.9v22.5z" fill="#24c25e"/>
  <path d="M657.1 570H466.4c-37.2 0-63.8-25-78.9-74.3v-.2l-2-7.9c-.6-2.4-.1-4.9 1.4-6.9s3.8-3.1 6.3-3.1h14.5c3 0 5.6 2 6.4 4.8 11 37.9 24.6 59.8 62 59.8h171.5c36.6 0 49.2-19.3 62.3-59.9.9-2.8 3.5-4.7 6.4-4.7h14.4c2.5 0 4.8 1.1 6.3 3.1s2 4.5 1.4 6.9l-2 7.6c-14.1 48.3-42.2 74.8-79.3 74.8zm-261.9-76.5c14.2 46.1 37.5 68.6 71.2 68.6h190.7c18 0 33.6-6.9 46.3-20.6 10.7-11.6 19.5-28.3 25.3-48.3l1.9-7.4h-13.5c-13.9 42.8-28.6 64.5-69.6 64.5H476.1c-41.7 0-58-25.8-69.4-64.5h-13.6l2.1 7.7zm99-406.9V91h-72v-4.4h72m3-15h-78c-6.6 0-12 5.4-12 12V94c0 6.6 5.4 12 12 12h78c6.6 0 12-5.4 12-12V83.6c0-6.6-5.4-12-12-12zm205.2 15V91h-72v-4.4h72m3-15h-78c-6.6 0-12 5.4-12 12V94c0 6.6 5.4 12 12 12h78c6.6 0 12-5.4 12-12V83.6c0-6.6-5.4-12-12-12z" fill="#24c25e"/>
</svg>
