<svg xmlns="http://www.w3.org/2000/svg" fill="none" viewBox="0 0 1202 269">
  <g opacity=".3" stroke="#569CD6">
    <path d="M1 33c36.733 78.834 167.222 234.499 395.311 226.482 285.111-10.021 237.28-88.689 445.955-93.699C1009.21 161.774 1150.98 232.257 1201 268"/>
    <path d="M1 17c36.733 78.834 167.222 234.499 395.311 226.482 285.111-10.021 237.28-88.689 445.955-93.699C1009.21 145.774 1150.98 216.257 1201 252"/>
    <path d="M1 1c36.733 78.834 167.222 234.499 395.311 226.482 285.111-10.021 237.28-88.689 445.955-93.699C1009.21 129.774 1150.98 200.257 1201 236"/>
  </g>
</svg>
