<svg width="24" height="24" viewBox="0 0 24 24" fill="none" xmlns="http://www.w3.org/2000/svg">
<path fill-rule="evenodd" clip-rule="evenodd" d="M8.00005 0.25C8.41426 0.25 8.75005 0.585786 8.75005 1V2.25H13L13.0565 2.25C13.8586 2.24999 14.588 2.24999 15.25 2.26272V1C15.25 0.585786 15.5858 0.25 16 0.25C16.4143 0.25 16.75 0.585786 16.75 1V2.32709C17.01 2.34691 17.2561 2.37182 17.4891 2.40313C18.6615 2.56076 19.6104 2.89288 20.3588 3.64124C21.1072 4.38961 21.4393 5.33856 21.5969 6.51098C21.7501 7.65018 21.7501 9.1058 21.75 10.9435V10.9436V11V13V13.0564V13.0565C21.7501 14.8942 21.7501 16.3498 21.5969 17.489C21.4393 18.6614 21.1072 19.6104 20.3588 20.3588C19.6104 21.1071 18.6615 21.4392 17.4891 21.5969C16.3499 21.75 14.8943 21.75 13.0566 21.75H13.0565H13H11H10.9436H10.9435C9.10582 21.75 7.65022 21.75 6.51103 21.5969C5.3386 21.4392 4.38966 21.1071 3.64129 20.3588C2.89293 19.6104 2.56081 18.6614 2.40318 17.489C2.25002 16.3498 2.25003 14.8942 2.25005 13.0564L2.25005 13V8.64706L2.25002 8.48999C2.24969 7.10812 2.24947 6.22688 2.49629 5.49049C2.96966 4.07812 4.07817 2.96962 5.49054 2.49624C5.97879 2.33259 6.53073 2.27754 7.25005 2.25912V1C7.25005 0.585786 7.58584 0.25 8.00005 0.25ZM15.25 3.76309V4C15.25 4.41421 15.5858 4.75 16 4.75C16.4143 4.75 16.75 4.41421 16.75 4V3.83168C16.9394 3.8477 17.1188 3.86685 17.2892 3.88976C18.2953 4.02502 18.8749 4.27869 19.2981 4.7019C19.7214 5.12511 19.975 5.70476 20.1103 6.71085C20.2485 7.73851 20.25 9.09318 20.25 11V13C20.25 14.9068 20.2485 16.2615 20.1103 17.2892C19.975 18.2952 19.7214 18.8749 19.2981 19.2981C18.8749 19.7213 18.2953 19.975 17.2892 20.1102C16.2615 20.2484 14.9069 20.25 13 20.25H11C9.09323 20.25 7.73856 20.2484 6.7109 20.1102C5.70481 19.975 5.12516 19.7213 4.70195 19.2981C4.27874 18.8749 4.02507 18.2952 3.88981 17.2892C3.75164 16.2615 3.75005 14.9068 3.75005 13V8.64706C3.75005 7.05384 3.75985 6.44061 3.91853 5.96718C4.24242 5.00082 5.00087 4.24237 5.96723 3.91848C6.26733 3.81789 6.6236 3.77713 7.25005 3.76077V4C7.25005 4.41421 7.58584 4.75 8.00005 4.75C8.41426 4.75 8.75005 4.41421 8.75005 4V3.75H13C13.8541 3.75 14.5973 3.75032 15.25 3.76309ZM6.25006 8C6.25006 7.58579 6.58585 7.25 7.00006 7.25H17.0001C17.4143 7.25 17.7501 7.58579 17.7501 8C17.7501 8.41421 17.4143 8.75 17.0001 8.75H7.00006C6.58585 8.75 6.25006 8.41421 6.25006 8ZM15 16.25C14.5858 16.25 14.25 16.5858 14.25 17C14.25 17.4142 14.5858 17.75 15 17.75H17C17.4143 17.75 17.75 17.4142 17.75 17C17.75 16.5858 17.4143 16.25 17 16.25H15Z" fill="#22282F"/>
</svg>