<svg xmlns="http://www.w3.org/2000/svg" viewBox="0 0 102.473 108.85"><path d="M102.418 48.483l-.9-14.9a15.113 15.113 0 00-6.371-11.29l-7.872-5.495a113.609 113.609 0 00-18.889-10.67l-10.981-4.88A14.359 14.359 0 0051.36.006a14.364 14.364 0 00-6.342 1.277L33.634 6.441a113.594 113.594 0 00-17.3 9.737l-8.918 6.1A15.117 15.117 0 00.928 33.653L.041 48.475a427.94 427.94 0 000 11.884l.893 14.9a15.125 15.125 0 006.371 11.29l7.874 5.509a113.529 113.529 0 0018.895 10.67l10.979 4.883a14.376 14.376 0 006.047 1.237 14.363 14.363 0 006.342-1.277l11.384-5.152a113.591 113.591 0 0017.3-9.737l8.918-6.1a15.115 15.115 0 006.487-11.374l.889-14.618c.036-3.182.1-8.348-.002-12.107z" fill="#3f4079"/><g fill="#fff"><path d="M51.755 18.448l.033.518a.26.26 0 00.219.253 1.914 1.914 0 00.24.045 23.479 23.479 0 012.359.4 35.886 35.886 0 013.636.955 36.588 36.588 0 0114.963 9.09 33.77 33.77 0 012.774 3.14c.318.408.314.4.812.253a9.2 9.2 0 011.71-.328 10.4 10.4 0 012.109.029 8.148 8.148 0 012.04.506 8.932 8.932 0 014.492 3.661 9.094 9.094 0 011.335 4.638 8.957 8.957 0 01-9.131 8.774 4.3 4.3 0 01-.537-.022 9.73 9.73 0 01-1.641-.251 8.96 8.96 0 01-6.409-5.938 8.394 8.394 0 01-.32-3.763 8.706 8.706 0 013.624-5.987c.076-.057.151-.112.223-.173.021-.014.027-.045.056-.1-.058-.086-.118-.188-.192-.28a34.47 34.47 0 00-17.482-11.512 34.762 34.762 0 00-3.2-.741c-.465-.086-.934-.149-1.4-.218-.178-.027-.263.033-.273.2-.012.241 0 .482-.012.722v.852a.178.178 0 01-.035.135.182.182 0 01-.122.069h-.05c-.513 0-1.034 0-1.54-.012-.025 0-.048-.022-.1-.049a2.748 2.748 0 01-.039-.288v-.922a2.745 2.745 0 00-.019-.32.191.191 0 00-.188-.176 1.1 1.1 0 00-.163 0l-1.784.067a7.516 7.516 0 00-.771.045c-.579.061-1.158.12-1.732.2s-1.149.18-1.722.28c-.827.143-1.641.339-2.45.559a32.717 32.717 0 00-15.457 9.339 31.7 31.7 0 00-4.91 7 31.007 31.007 0 00-1.96 4.693 30.39 30.39 0 00-.806 3.02q-.271 1.255-.44 2.524c-.087.649-.128 1.3-.182 1.957-.029.345-.048.692-.06 1.041 0 .245.052.3.3.32h3.891a1.025 1.025 0 01.5.055.722.722 0 01.054.175 10.1 10.1 0 01-.043 1.581 1.171 1.171 0 01-.207.049h-3.93a.728.728 0 00-.471.071.548.548 0 00-.045.353 15.119 15.119 0 00.138 1.757c.058.355.085.716.13 1.073.087.69.223 1.371.364 2.051.207.957.453 1.9.74 2.828a30.667 30.667 0 001.9 4.681 32.545 32.545 0 0020.931 16.732c.891.229 1.79.424 2.687.575.786.133 1.579.222 2.373.308 1.108.116 2.216.127 3.326.149.207 0 .413 0 .61-.016s.244-.075.24-.255c0-.308-.021-.612-.043-.922-.083-1.161-.076-2.324-.074-3.485a2.313 2.313 0 01.9-1.81 3.591 3.591 0 011.6-.733c.7-.155 1.4-.308 2.1-.451.529-.108 1.063-.2 1.594-.3.267-.049.531-.1.8-.141.4-.065.8-.141 1.2-.19a11.017 11.017 0 012.183-.143 3.653 3.653 0 01.757.135 1.577 1.577 0 01.874.622 22.25 22.25 0 011.28 1.9c.323.571.682 1.124 1.034 1.683a1.021 1.021 0 00.12.161.231.231 0 00.292.071 1.81 1.81 0 00.248-.135c1.679-1.079 3.341-2.183 4.937-3.383a26.169 26.169 0 005.24-5.336c.329-.443.668-.875.99-1.322.258-.359.5-.73.742-1.1a1.246 1.246 0 00.178-.847 1.938 1.938 0 00-.684-1.326 22.392 22.392 0 00-1.937-1.52 3.58 3.58 0 01-1.383-1.59 3.185 3.185 0 01-.124-2.04l.413-1.673.566-2.289q.285-1.126.566-2.255a4.987 4.987 0 01.395-1.09 2.54 2.54 0 012.03-1.357 8.235 8.235 0 011.9-.025c.984.094 1.97.169 2.954.245.351.027.7.029 1.056.039a21.153 21.153 0 012.275.123 3.131 3.131 0 01.825.228 1.829 1.829 0 011.05 1.2 2.541 2.541 0 01.089 1.3c-.089.408-.11.816-.176 1.224-.107.671-.207 1.345-.349 2.012-.155.759-.339 1.512-.515 2.267a26.44 26.44 0 01-.8 2.689 34.952 34.952 0 01-3.835 7.939 36.847 36.847 0 01-3.376 4.409 39.54 39.54 0 01-6.408 5.785 36.628 36.628 0 01-6.408 3.752 45.494 45.494 0 01-4.066 1.61c-.947.32-1.912.577-2.894.816s-1.958.418-2.942.586c-.506.086-1.021.118-1.532.184a9.246 9.246 0 01-1.54.082 2.212 2.212 0 01-.827-.165 1.494 1.494 0 01-.657-.577 2.633 2.633 0 01-.356-.847c-.037-.155-.089-.3-.136-.463a2.373 2.373 0 00-.3-.035h-.934a30.235 30.235 0 01-3.243-.157 35.41 35.41 0 01-2.375-.3 35.245 35.245 0 01-7.8-2.153A35.674 35.674 0 0118.573 70.49a33.81 33.81 0 01-3.746-9.611c-.246-1.1-.413-2.2-.579-3.314-.083-.6-.12-1.192-.159-1.8-.056-.894-.128-1.787-.1-2.683.033-1.081.091-2.163.207-3.24q.112-1.139.3-2.265c.151-.879.333-1.757.56-2.624s.469-1.7.748-2.536a33.713 33.713 0 011.985-4.693 35 35 0 015.315-7.631 36.216 36.216 0 0115.869-10.031 28.409 28.409 0 013.1-.8c.544-.1 1.083-.241 1.631-.326.734-.114 1.472-.2 2.212-.284a38.71 38.71 0 011.982-.159c.757-.039 1.515-.053 2.274-.071h1.178c.123.001.236.015.405.026zM85.79 42.093a6.459 6.459 0 00-10.264-5.728 6.8 6.8 0 00-.781.653 6.2 6.2 0 00-.058 8.841l.017.018a6.43 6.43 0 003.942 1.875 6.2 6.2 0 003.514-.612 6.067 6.067 0 003.63-5.047z"/><path d="M49.163 59.565c.012.171.029.288.029.408v3.008c0 .441-.012.447-.455.455h-14.3a1.34 1.34 0 01-.575-.053.788.788 0 01-.015-.5 10.7 10.7 0 011.633-4.026 18 18 0 011.759-2.151c1.141-1.224 2.369-2.347 3.593-3.483.75-.7 1.48-1.412 2.2-2.134a6.8 6.8 0 001.226-1.588 4.888 4.888 0 00.569-1.787 3.447 3.447 0 00-.267-1.765 2.406 2.406 0 00-1.575-1.406 3.821 3.821 0 00-2.51.053 2.533 2.533 0 00-1.557 1.585 4.063 4.063 0 00-.269 1.21 1.95 1.95 0 01-.056.269.847.847 0 01-.176.024q-2-.184-4-.375c-.021 0-.041-.031-.089-.067a1.8 1.8 0 010-.333 10.3 10.3 0 01.68-2.383 5.644 5.644 0 012.855-2.84 8.491 8.491 0 012.638-.745 11.561 11.561 0 011.7-.09 8.783 8.783 0 013.132.6 5.979 5.979 0 013.543 3.691 6.45 6.45 0 01.265 2.887 8.835 8.835 0 01-1.716 4.144 14.346 14.346 0 01-1.978 2.228c-1.034.959-2.088 1.9-3.132 2.857a11.833 11.833 0 00-1.428 1.477c-.147.19-.287.388-.413.59-.074.112-.017.2.126.218a3.983 3.983 0 00.413 0h7.6c.153.006.327.016.55.022zm16.935-.74c-.176 0-.325.018-.471.018h-1.86a.751.751 0 00-.432.065.95.95 0 00-.056.473v3.528c0 .145-.012.29-.017.422a.627.627 0 01-.453.09h-3.384a2.248 2.248 0 01-.26-.029.4.4 0 01-.1-.353v-3.683c0-.145-.012-.288-.021-.445a1.47 1.47 0 00-.252-.059h-8.571a1.342 1.342 0 01-.54-.053 1.473 1.473 0 01-.05-.265v-3.246a.856.856 0 01.207-.512q1.079-1.53 2.152-3.061l7.341-10.439c.337-.477.223-.424.827-.428h2.625a.978.978 0 01.453.053 1.667 1.667 0 01.046.224v13.361c0 .147 0 .294.012.441a.164.164 0 00.157.155c.107 0 .207.012.325.012h1.916a3.944 3.944 0 01.413.014.972.972 0 01.045.2v3.328a1.25 1.25 0 01-.052.189zm-7.12-11.386c-.1.131-.163.2-.207.273l-3.163 4.583-1.654 2.383c-.072.1-.18.2-.178.333.037.031.058.061.079.061q2.48.012 4.961.016a.325.325 0 00.256-.559v-6.86a1.1 1.1 0 00-.093-.222zm26.148-6.366a5.736 5.736 0 01-3.572 5.65 5.95 5.95 0 01-2.778.408 5.775 5.775 0 01-5-3.877 5.193 5.193 0 01-.269-2.33 5.629 5.629 0 013.326-4.613 5.324 5.324 0 012.836-.543 5.756 5.756 0 015.125 3.732 4.515 4.515 0 01.332 1.573zm-5.848-2.155a2.544 2.544 0 00-2.584 2.479 2.576 2.576 0 002.557 2.532 2.542 2.542 0 002.592-2.489 2.467 2.467 0 00-.718-1.767 2.534 2.534 0 00-1.775-.747z"/><path d="M79.305 40.449a1.028 1.028 0 011.054.979 1.048 1.048 0 01-1.015 1.081h-.039a1.066 1.066 0 01-1.034-1.02 1.008 1.008 0 01.972-1.041z"/></g></svg>