<svg
    width="33"
    height="32"
    viewBox="0 0 33 32"
    fill="none"
    xmlns="http://www.w3.org/2000/svg"
>
    <path
    d="M25.842 10.5427C23.482 7.90227 18.8615 9.68262 18.0109 11.9081C17.1602 9.68047 12.5397 7.90227 10.1797 10.5427C6.92521 14.183 9.41234 18.9779 12.082 20.7475C14.0629 22.0612 16.5708 23.8287 17.7913 25.0672C17.8699 25.1467 17.9438 25.2241 18.0224 25.2994C18.0895 25.2241 18.1634 25.1467 18.242 25.0672C19.4624 23.8287 21.9704 22.0569 23.9536 20.7475C26.6025 18.9757 29.0965 14.183 25.842 10.5427Z"
    fill="#FF0A62"
    />
    <path
    d="M22.3012 19.9414L22.052 19.5736C23.3559 18.5966 24.8079 16.5141 25.1108 14.066C25.2284 13.2013 25.1705 12.3203 24.941 11.4808C24.7115 10.6412 24.3155 9.86217 23.779 9.19476C22.6492 7.76654 21.094 7.81166 20.267 7.96735C18.7076 8.25841 17.277 9.34819 16.8689 10.5598L16.667 11.1577L16.4651 10.5598C15.9302 8.98042 13.5545 7.47774 11.4087 7.99217L11.312 7.55219C13.46 7.03551 15.8228 8.37574 16.6648 9.9461C17.2856 8.78638 18.6861 7.8049 20.1919 7.52286C21.7771 7.22503 23.169 7.7169 24.1098 8.90595C24.6849 9.62077 25.1095 10.4553 25.3557 11.3548C25.6019 12.2542 25.6641 13.1982 25.5383 14.1247C25.2182 16.7059 23.6824 18.908 22.3012 19.9414Z"
    fill="#1A1D4E"
    />
    <path
    d="M27.7443 27.0838L27.4415 26.7717C28.9826 25.3679 30.2098 23.6697 31.0465 21.7832C31.8831 19.8967 32.3111 17.8623 32.3039 15.8074C32.3039 13.0541 31.53 10.3534 30.0661 7.99792C28.6022 5.64249 26.5041 3.72226 23.9994 2.4454C21.4946 1.16854 18.6787 0.583778 15.857 0.754508C13.0353 0.925238 10.3154 1.84494 7.99219 3.41392L7.74023 3.06093C11.0412 0.829936 15.0861 -0.10353 19.064 0.447664C23.042 0.998858 26.659 2.99397 29.19 6.03306C31.721 9.07215 32.979 12.9306 32.7117 16.8349C32.4444 20.7393 30.6716 24.4009 27.7487 27.0859L27.7443 27.0838Z"
    fill="#1A1D4E"
    />
    <path
    d="M16.5736 31.551C13.9724 31.5496 11.4107 30.9503 9.11101 29.8053C6.81129 28.6602 4.84296 27.0039 3.37677 24.98C1.91058 22.9561 0.990822 20.6259 0.697314 18.1914C0.403807 15.7569 0.745408 13.2917 1.69248 11.0098L2.10492 11.1622C0.959699 13.9247 0.732268 16.9496 1.45273 19.8366C2.1732 22.7235 3.8076 25.3362 6.13951 27.3288C8.47142 29.3214 11.3909 30.6 14.5113 30.9951C17.6318 31.3903 20.8061 30.8835 23.614 29.5418L23.8158 29.9135C21.5746 30.9948 19.0917 31.5562 16.5736 31.551V31.551Z"
    fill="#1A1D4E"
    />
</svg>