<svg width="382" height="227" viewBox="0 0 382 227" fill="none" xmlns="http://www.w3.org/2000/svg">
<path d="M26.67 140.306V205.738C14.3939 203.658 2.26946 198.536 0.221857 178.97C-1.24117 164.975 10.068 146.414 26.67 140.306Z" fill="#EEF6FF"/>
<path d="M363.21 111.962C358.435 107.908 352.033 105.19 343.814 104.663C343.606 104.647 343.394 104.634 343.182 104.628C338.291 104.375 332.755 104.893 326.574 106.353C325.632 106.564 324.713 106.763 323.815 106.95C293.127 113.001 287.287 93.4355 290.697 75.9077C292.909 64.4247 286.349 57.2644 277.425 54.6259V43.1682H175.071V138.988H271.286V115.845H347.325C347.707 115.845 348.086 115.921 348.439 116.067C348.792 116.213 349.113 116.428 349.383 116.698C349.653 116.968 349.867 117.289 350.014 117.642C350.16 117.995 350.235 118.373 350.235 118.756V120.832C350.236 121.214 350.161 121.593 350.015 121.946C349.869 122.3 349.654 122.621 349.384 122.892C349.114 123.162 348.793 123.377 348.439 123.523C348.086 123.67 347.707 123.745 347.325 123.745H345.985V179.744C348.235 178.127 350.447 176.454 352.621 174.727L353.117 174.335L353.395 174.11C357.212 171.064 360.903 167.879 364.401 164.631C377.047 152.895 378.88 125.256 363.21 111.962ZM219.666 109.488C215.354 109.488 211.138 108.209 207.553 105.813C203.967 103.417 201.173 100.012 199.522 96.0283C197.872 92.0443 197.44 87.6604 198.282 83.431C199.123 79.2016 201.2 75.3166 204.249 72.2674C207.298 69.2182 211.183 67.1416 215.412 66.3003C219.642 65.4591 224.026 65.8908 228.01 67.5411C231.994 69.1913 235.399 71.9859 237.795 75.5714C240.19 79.1569 241.469 83.3723 241.469 87.6846C241.469 93.4671 239.172 99.0128 235.083 103.102C230.994 107.191 225.448 109.488 219.666 109.488Z" fill="#EEF6FF"/>
<path d="M371.261 194.176C371.359 206.986 354.34 210.411 345.982 204.951V172.407C347.492 172.386 348.997 172.566 350.46 172.941C351.141 173.121 351.807 173.357 352.45 173.646C352.766 173.791 353.082 173.962 353.398 174.126C356.391 175.826 358.372 178.866 358.021 183.533C358.047 183.517 371.154 180.307 371.261 194.176Z" fill="#A1FFC7"/>
<path d="M352.33 206.199C351.477 206.199 350.624 206.148 349.777 206.044L349.853 205.412C355.183 206.063 360.628 204.568 364.072 201.507C365.332 200.396 366.333 199.022 367.004 197.482C367.675 195.943 368 194.275 367.956 192.596H368.588C368.631 194.365 368.286 196.123 367.577 197.745C366.867 199.366 365.81 200.812 364.48 201.981C361.465 204.67 356.972 206.196 352.33 206.199Z" fill="#1A1D4E"/>
<path d="M367.409 188.431C365.026 179.934 355.521 182.149 355.117 182.247L354.968 181.634C355.073 181.609 365.472 179.185 368.019 188.27L367.409 188.431Z" fill="#1A1D4E"/>
<path d="M354.785 177.147L354.191 177.362C353.846 176.396 353.323 175.503 352.649 174.73C352.025 174.017 351.291 173.409 350.475 172.929C349.092 172.133 347.574 171.597 345.998 171.349V170.717C348.677 171.14 350.873 172.135 352.466 173.627C352.706 173.848 352.933 174.084 353.145 174.332C353.862 175.16 354.418 176.115 354.785 177.147Z" fill="#1A1D4E"/>
<path d="M365.845 142.126C361.753 150.187 356.7 150.067 357.784 158.968C358.47 164.599 351.78 166.764 345.998 165.01V123.745L347.325 123.745C348.097 123.745 348.837 123.438 349.383 122.893C349.928 122.347 350.235 121.607 350.235 120.835V118.752C350.234 117.981 349.927 117.242 349.381 116.697C348.836 116.152 348.096 115.845 347.325 115.845H325.521C323.964 113.093 323.212 110.183 323.806 106.953C323.905 106.401 324.04 105.855 324.21 105.32C326.258 98.8231 339.128 97.6192 335.039 88.7178C330.95 79.8165 332.871 75.2441 336.723 73.0796C340.575 70.9151 342.136 65.379 341.052 58.8823C339.968 52.3856 351.761 36.3871 353.692 55.8772C355.622 75.3674 349.119 81.6745 351.164 87.6024C353.208 93.5303 365.238 88.5978 364.998 101.228C364.889 104.873 364.286 108.488 363.206 111.971C361.165 118.923 358.368 124.036 360.429 127.581C363.44 132.744 369.934 134.068 365.845 142.126Z" fill="#A1FFC7"/>
<path d="M343.814 72.4666H343.182V115.842H343.814V72.4666Z" fill="#1A1D4E"/>
<path d="M343.726 112.787L343.271 112.347C345.742 109.791 349.752 105.588 349.986 105.193L350.144 105.288L350.567 105.43C350.453 105.781 346.785 109.624 343.726 112.787Z" fill="#1A1D4E"/>
<path d="M337.342 84.0007L336.853 84.4006L343.25 92.2309L343.74 91.8311L337.342 84.0007Z" fill="#1A1D4E"/>
<path d="M339.081 100.96L338.647 101.419L343.268 105.789L343.703 105.33L339.081 100.96Z" fill="#1A1D4E"/>
<path d="M331.759 87.2706C327.225 77.4023 330.246 73.0986 333.576 71.2248C337.232 69.1677 338.834 63.8528 337.75 57.3561C337.163 53.8265 340.234 47.5604 343.621 45.4054C345.103 44.4574 346.503 44.3753 347.669 45.1684L347.325 45.6961C346.377 45.0483 345.242 45.1305 343.975 45.9426C340.815 47.9617 337.842 53.9876 338.385 57.2581C339.514 64.0234 337.795 69.5816 333.898 71.7935C329.389 74.3214 328.868 79.4531 332.347 87.0242L331.759 87.2706Z" fill="#1A1D4E"/>
<path d="M321.019 106.103L320.387 106.024C320.492 105.217 320.668 104.421 320.915 103.645C321.758 100.966 324.346 99.1707 326.849 97.4359C329.254 95.7675 331.529 94.1939 332.274 91.9409L332.875 92.14C332.063 94.5889 329.595 96.3015 327.209 97.9542C324.823 99.6068 322.299 101.361 321.521 103.835C321.287 104.574 321.118 105.334 321.019 106.103Z" fill="#1A1D4E"/>
<path d="M323.894 115.845H323.126C322.297 114.638 321.617 113.335 321.101 111.965L321.695 111.747C322.247 113.203 322.986 114.581 323.894 115.845Z" fill="#1A1D4E"/>
<path d="M349.521 164.087C348.665 164.266 347.792 164.355 346.917 164.353C346.601 164.353 346.304 164.353 345.998 164.321V163.689C347.134 163.774 348.276 163.7 349.391 163.468C352.937 162.716 354.836 160.46 354.469 157.433L355.101 157.354C355.503 160.694 353.367 163.272 349.521 164.087Z" fill="#1A1D4E"/>
<path d="M355.136 152.99L354.504 152.873C355.003 150.237 356.416 148.626 358.056 146.762C359.468 145.153 361.07 143.33 362.552 140.41C365.32 134.953 363.168 132.827 360.441 130.096C360.176 129.834 359.91 129.569 359.645 129.294L360.097 128.851C360.362 129.123 360.625 129.385 360.887 129.648C363.563 132.312 366.094 134.83 363.118 140.707C361.598 143.7 359.958 145.555 358.533 147.191C356.896 149.046 355.6 150.522 355.136 152.99Z" fill="#1A1D4E"/>
<path d="M357.155 126.153C355.519 123.341 356.779 119.659 358.375 114.999C359.352 112.155 360.458 108.913 361.112 105.276L361.744 105.386C361.08 109.071 359.965 112.338 358.982 115.204C357.44 119.713 356.22 123.274 357.718 125.837L357.155 126.153Z" fill="#1A1D4E"/>
<path d="M362.315 99.6542H361.683C361.825 92.2443 357.737 91.1225 353.784 90.026C351.183 89.3087 348.728 88.6294 347.865 86.1394C346.977 83.5704 347.631 80.973 348.535 77.377C349.783 72.4129 351.49 65.616 350.377 54.3415L351.009 54.2783C352.134 65.6539 350.409 72.5235 349.151 77.5319C348.273 81.0077 347.641 83.5356 348.466 85.934C349.218 88.1111 351.414 88.7178 353.954 89.4099C357.942 90.5063 362.467 91.7545 362.315 99.6542Z" fill="#1A1D4E"/>
<path d="M271.602 199.238H270.97V216.573H271.602V199.238Z" fill="#1A1D4E"/>
<path d="M271.602 146.806H270.97V189.189H271.602V146.806Z" fill="#1A1D4E"/>
<path d="M271.602 123.423H270.97V139.541H271.602V123.423Z" fill="#1A1D4E"/>
<path d="M346.314 123.423H345.682V141.535H346.314V123.423Z" fill="#1A1D4E"/>
<path d="M346.314 150.797H345.682V176.013H346.314V150.797Z" fill="#1A1D4E"/>
<path d="M346.314 181.621H345.682V212.942H346.314V181.621Z" fill="#1A1D4E"/>
<path d="M304.644 174.941V194.751L293.939 174.941H304.644Z" fill="#EEF6FF"/>
<path d="M286.573 178.866L297.57 199.209H286.573V178.866Z" fill="#EEF6FF"/>
<path d="M304.644 198.669V199.209H302.29L289.173 174.941H291.821L304.644 198.669Z" fill="#EEF6FF"/>
<path d="M301.924 197.487H294.432V196.855H301.292V173.219H298.855V172.587H301.924V197.487Z" fill="#1A1D4E"/>
<path d="M283.849 182.825H283.217V172.587H295.338V173.219H283.849V182.825Z" fill="#1A1D4E"/>
<path d="M287.202 142.398L300.319 166.666H286.573V142.398H287.202Z" fill="#EEF6FF"/>
<path d="M304.644 142.398V164.169L292.877 142.398H304.644Z" fill="#EEF6FF"/>
<path d="M301.924 164.944H283.217V148.645H283.849V164.312H301.292V161.111H301.924V164.944Z" fill="#1A1D4E"/>
<path d="M301.924 156.56H301.292V140.676H283.849V143.172H283.217V140.044H301.924V156.56Z" fill="#1A1D4E"/>
<path d="M319.344 174.941L332.461 199.209H318.715V174.941H319.344Z" fill="#EEF6FF"/>
<path d="M336.787 174.941V196.713L325.019 174.941H336.787Z" fill="#EEF6FF"/>
<path d="M334.063 186.807H333.431V173.219H315.991V176.193H315.359V172.587H334.063V186.807Z" fill="#1A1D4E"/>
<path d="M321.057 197.487H315.359V181.204H315.991V196.855H321.057V197.487Z" fill="#1A1D4E"/>
<path d="M318.715 146.322L329.712 166.666H318.715V146.322Z" fill="#EEF6FF"/>
<path d="M336.787 142.398V162.207L326.078 142.398H336.787Z" fill="#EEF6FF"/>
<path d="M323.964 142.398L336.787 166.125V166.666H334.43L321.313 142.398H323.964Z" fill="#EEF6FF"/>
<path d="M318.715 164.944H315.359V140.044H326.571V140.676H315.991V164.312H318.715V164.944Z" fill="#1A1D4E"/>
<path d="M334.063 164.944H322.751V164.312H333.431V140.676H331.134V140.044H334.063V164.944Z" fill="#1A1D4E"/>
<path d="M342.996 209.83C340.869 206.382 336.493 211.362 336.288 211.596C336.531 211.201 344.544 198.072 341.157 197.307C338.424 196.675 335.649 207.264 335.321 208.55C335.709 206.878 339.65 189.531 334.73 189.531C330.552 189.531 332.42 207.226 332.477 207.773C332.369 207.242 328.685 189.098 325.165 191.499C321.645 193.901 329.001 206.774 329.374 207.428C328.972 206.856 321.686 196.467 321.082 201.01C320.795 203.175 323.237 206.347 325.942 209.128C323.206 208.566 319.986 208.758 317.094 211.106C316.371 211.691 315.995 212.193 315.897 212.626H343.672C343.884 211.906 343.723 211.008 342.996 209.83Z" fill="#A1FFC7"/>
<path d="M315.284 210.765L314.885 210.275C317.211 208.379 319.957 207.656 323.06 208.063C319.973 204.758 318.529 202.173 318.769 200.372C318.876 199.573 319.189 199.108 319.717 198.982C321.034 198.666 323.379 201.13 325.209 203.406C323.095 199.108 320.396 192.431 322.997 190.652C323.194 190.508 323.426 190.417 323.669 190.389C323.912 190.361 324.159 190.396 324.384 190.491C326.634 191.408 328.678 198.22 329.838 202.881C329.698 200.577 329.674 198.267 329.765 195.961L330.397 195.993C330.148 201.048 330.795 207.103 330.802 207.163L330.17 207.257C329.339 203.102 326.634 192.09 324.138 191.076C324.009 191.02 323.868 190.999 323.729 191.016C323.59 191.034 323.458 191.088 323.348 191.174C320.621 193.038 325.541 203.02 327.667 206.711L327.133 207.049C325.025 204 321.177 199.285 319.865 199.607C319.632 199.664 319.477 199.952 319.41 200.467C319.186 202.164 320.835 204.891 324.188 208.326L324.89 209.062L323.882 208.856C320.586 208.177 317.691 208.818 315.284 210.765Z" fill="#1A1D4E"/>
<path d="M333.598 208.171L332.985 208.022C333.02 207.874 336.521 193.171 333.911 189.853C333.777 189.666 333.6 189.515 333.394 189.412C333.189 189.308 332.962 189.256 332.732 189.259C331.974 189.259 331.38 190.046 330.966 191.6L330.356 191.436C330.852 189.572 331.652 188.627 332.732 188.627C333.058 188.623 333.379 188.697 333.67 188.842C333.962 188.987 334.214 189.199 334.407 189.461C336.066 191.569 335.526 197.541 334.78 202.18C335.94 199.089 337.542 196.03 339.229 196.413C339.417 196.452 339.593 196.533 339.745 196.65C339.896 196.767 340.019 196.917 340.104 197.089C340.594 198.059 340.199 199.987 338.894 202.988L338.316 202.736C339.823 199.276 339.814 197.911 339.542 197.364C339.499 197.275 339.435 197.198 339.357 197.138C339.278 197.078 339.187 197.038 339.09 197.019C337.191 196.596 334.714 203.633 333.598 208.171Z" fill="#1A1D4E"/>
<path d="M334.524 211.226L334.015 210.857C334.015 210.834 335.469 208.487 336.881 205.738L337.444 206.025C336.831 207.22 336.215 208.335 335.706 209.223C336.707 208.42 338.013 207.643 339.239 207.725C339.662 207.766 340.069 207.911 340.423 208.148C340.777 208.384 341.067 208.705 341.267 209.081L340.73 209.413C340.582 209.122 340.363 208.874 340.095 208.689C339.826 208.505 339.515 208.391 339.191 208.357C337.125 208.199 334.549 211.195 334.524 211.226Z" fill="#1A1D4E"/>
<path d="M304.155 212.626H276.285C277.132 210.869 279.337 208.31 284.409 210.098C284.409 210.098 276.907 203.399 278.045 198.641C279.17 193.948 286.096 208.815 286.283 209.217C286.175 208.714 282.273 190.501 287.546 187.922C292.918 185.309 288.15 209.495 288.283 209.226C288.415 208.957 292.504 196.498 295.118 197.772C297.664 199.01 291.041 208.784 290.694 209.273C291.051 208.888 297.159 202.287 298.72 203.197C300.281 204.107 292.4 210.572 292.084 210.828C292.4 210.62 300.195 205.602 304.066 211.034C304.559 211.659 304.543 212.187 304.155 212.626Z" fill="#A1FFC7"/>
<path d="M300.846 209.634C297.115 204.398 289.363 209.46 289.288 209.514L288.915 209.005C291.56 206.856 295.721 203.045 295.639 201.971C295.64 201.954 295.635 201.937 295.626 201.922C295.617 201.907 295.604 201.896 295.588 201.889C294.719 201.38 291.019 204.559 287.941 207.924L287.449 207.532C288.994 205.279 292.887 199.001 292.346 196.941C292.327 196.841 292.285 196.747 292.224 196.666C292.162 196.585 292.083 196.519 291.992 196.473C291.907 196.432 291.814 196.411 291.719 196.411C291.625 196.411 291.531 196.432 291.446 196.473C290.643 196.789 288.833 198.647 285.758 207.318C285.632 207.671 285.606 207.741 285.587 207.779L285.464 208.022L285.202 207.94C284.933 207.852 284.933 207.852 285.123 206.736C287.818 190.82 286.681 187.29 285.755 186.605C285.48 186.399 285.123 186.406 284.693 186.605L284.415 186.036C285.243 185.631 285.805 185.84 286.131 186.083C287.847 187.366 287.844 193.547 286.131 204.461C288.122 199.32 289.828 196.435 291.209 195.869C291.375 195.792 291.556 195.752 291.74 195.752C291.923 195.752 292.104 195.792 292.271 195.869C292.443 195.954 292.595 196.077 292.714 196.229C292.834 196.38 292.917 196.557 292.959 196.745C293.427 198.52 291.297 202.511 289.673 205.197C291.793 203.128 294.729 200.622 295.911 201.307C296.015 201.367 296.103 201.451 296.166 201.552C296.229 201.654 296.267 201.769 296.274 201.889C296.366 203.08 293.56 205.798 291.433 207.671C294.22 206.502 298.701 205.479 301.371 209.236L300.846 209.634Z" fill="#1A1D4E"/>
<path d="M284.206 210.389L282.996 207.773C280.806 203.033 277.15 196.457 275.804 196.457H275.766C275.539 196.479 275.409 196.887 275.352 197.127C274.979 198.688 275.561 200.666 277.081 203.001L276.55 203.346C274.932 200.859 274.322 198.716 274.736 196.978C274.907 196.261 275.232 195.872 275.703 195.825H275.779C277.551 195.825 280.759 201.766 282.509 205.305C281.805 201.285 280.708 193.253 282.26 188.845L282.857 189.053C280.838 194.795 283.565 207.45 283.593 207.577L284.206 210.389Z" fill="#1A1D4E"/>
<path d="M274.271 210.06L273.779 209.665C274.843 208.335 276.809 207.03 280.256 207.842C279.409 206.992 278.61 206.097 277.861 205.159L278.357 204.768C279.355 206.017 280.446 207.19 281.621 208.275L282.809 209.337L281.308 208.809C277.412 207.447 275.333 208.746 274.271 210.06Z" fill="#1A1D4E"/>
<path d="M350.248 222.068H290.614V222.7H350.248V222.068Z" fill="#1A1D4E"/>
<path d="M350.564 212.31V218.178H349.932V212.942H330.745V212.31H350.564Z" fill="#1A1D4E"/>
<path d="M281.407 222.7H270.97V212.31H323.215V212.942H271.602V222.068H281.407V222.7Z" fill="#1A1D4E"/>
<path d="M62.4747 113.836C62.264 114.455 62.0534 115.019 61.8427 115.526H31.7923C31.6627 112.05 33.5049 106.397 37.379 102.195C39.9543 99.4014 39.3128 98.3017 37.8593 97.1389C35.9223 95.6032 32.5412 93.979 33.4354 88.0922C34.2823 82.5055 42.9151 83.1849 41.7301 74.5679C40.7822 67.6541 40.7979 53.6464 47.5696 54.2373C54.3412 54.8282 57.4726 69.2182 55.6936 74.4605C53.9146 79.7027 49.4307 83.5609 55.4408 86.31L55.6525 86.4111C58.9957 88.0164 62.4273 91.5649 63.8366 97.1326C64.9426 101.481 64.8162 107.029 62.4747 113.836Z" fill="#A1FFC7"/>
<path d="M45.4367 71.7683H44.8047V116.158H45.4367V71.7683Z" fill="#1A1D4E"/>
<path d="M38.2021 93.7586L37.8497 94.2832L44.9398 99.0458L45.2922 98.5212L38.2021 93.7586Z" fill="#1A1D4E"/>
<path d="M49.6108 89.5634L44.9071 93.8031L45.3302 94.2725L50.0339 90.0328L49.6108 89.5634Z" fill="#1A1D4E"/>
<path d="M54.9181 100.861L44.9416 107.79L45.3021 108.309L55.2786 101.38L54.9181 100.861Z" fill="#1A1D4E"/>
<path d="M34.623 100.833C29.9306 105.92 28.436 112.736 29.3776 115.526H28.7141C27.7471 112.158 29.7695 105.168 34.1585 100.403L34.623 100.833Z" fill="#1A1D4E"/>
<path d="M59.7759 112.37C59.4212 113.448 58.999 114.504 58.512 115.529H57.8136C58.3546 114.442 58.813 113.314 59.185 112.158C61.3306 105.92 61.5328 100.975 60.8439 97.1547C59.7917 91.2932 56.6539 88.0827 55.2668 86.9167L55.6744 86.4333C57.6146 88.0606 60.1614 91.0435 61.2863 96.0077C61.3717 96.3869 61.4475 96.7692 61.5107 97.1547C62.2722 101.673 61.6908 106.783 59.7759 112.37Z" fill="#1A1D4E"/>
<path d="M50.4573 83.9117C48.04 81.8736 49.2945 79.3931 50.748 76.5176C51.3873 75.3197 51.9406 74.0779 52.4038 72.8015C53.5856 69.3257 52.5144 61.2712 49.4145 56.5219C48.0084 54.3668 46.3273 53.1439 44.5515 52.9891C40.5195 52.632 39.1797 57.9154 38.7752 62.4024L38.1433 62.3455C38.7752 55.4981 40.9871 52.0412 44.6052 52.3603C46.5801 52.5341 48.4255 53.8518 49.9422 56.1774C53.1906 61.1511 54.2555 69.3099 53.001 73.0069C52.5284 74.3095 51.9634 75.5766 51.3105 76.7988C49.8696 79.6427 48.83 81.7124 50.8649 83.4345L50.4573 83.9117Z" fill="#1A1D4E"/>
<path d="M35.4856 96.6049C35.038 96.0995 34.5247 95.6563 33.9593 95.2873C31.9971 93.8464 29.3112 91.8715 30.1264 86.4807C30.5024 84.0002 32.3383 82.6888 34.1426 81.3901C36.5694 79.649 39.0815 77.8511 38.4211 73.0449C38.1703 71.1585 38.0247 69.2597 37.985 67.3571H38.617C38.6564 69.2311 38.7999 71.1015 39.0467 72.9596C39.7609 78.1418 36.9707 80.142 34.5123 81.9052C32.7523 83.1691 31.0902 84.3604 30.7521 86.5755C29.9937 91.5871 32.3984 93.3566 34.3322 94.7912C34.9463 95.195 35.5023 95.6809 35.9848 96.2352L35.4856 96.6049Z" fill="#1A1D4E"/>
<path d="M26.9861 200.35H26.3542V212.623H26.9861V200.35Z" fill="#1A1D4E"/>
<path d="M26.9861 135.503H26.3542V161.859H26.9861V135.503Z" fill="#1A1D4E"/>
<path d="M26.9861 123.423H26.3542V129.664H26.9861V123.423Z" fill="#1A1D4E"/>
<path d="M94.2341 129.044H32.0477V212.626H94.2341V129.044Z" fill="#EEF6FF"/>
<path d="M57.0461 168.318C57.0461 168.318 66.6237 155.612 55.8485 146.224C42.3337 134.451 31.4416 154.519 33.979 162.972C20.2145 162.864 22.6413 180.481 28.9706 181.593C20.5969 190.608 34.2476 210.594 47.1778 198.656C49.3897 203.712 67.717 204.862 64.2948 189.787L64.1685 189.727C69.3949 189.373 73.133 187.42 73.3321 182.629C74.0178 165.945 63.1604 166.928 57.0461 168.318Z" fill="#A1FFC7"/>
<path d="M35.5049 201.007C32.2628 201.007 29.381 199.446 27.2671 197.326C22.8432 192.902 20.8335 185.151 25.0551 180.095C22.0627 179.125 19.8824 174.55 20.3153 169.879C20.8146 164.391 24.5116 161.089 30.2373 160.981C28.9734 155.707 32.3861 146.322 38.453 142.404C41.6129 140.363 46.6687 139.036 52.7199 144.3C62.1742 152.538 56.1957 163.386 54.4136 166.157C59.7285 165.076 63.6183 165.636 66.2947 167.863C69.2144 170.293 70.5669 174.704 70.3078 180.97C70.1276 185.353 67.1068 187.827 61.3274 188.333C62.5724 194.229 60.5406 198.508 55.7344 200.091C51.3106 201.544 45.3984 200.208 43.7521 197.493C40.9177 200.009 38.096 201.007 35.5049 201.007ZM30.5281 161.61C24.9983 161.61 21.4181 164.716 20.941 169.936C20.5207 174.569 22.739 179.1 25.6808 179.602L26.2527 179.703L25.8578 180.13C21.4339 184.895 23.3709 192.532 27.7 196.877C31.3559 200.546 37.4545 202.439 43.6163 196.757L43.9322 196.441L44.1092 196.846C45.1867 199.307 50.7734 201.039 55.5164 199.478C58.1675 198.606 62.3417 196.002 60.6606 188.32L59.5989 187.808L60.7902 187.729C66.5033 187.344 69.4862 185.059 69.6568 180.936C69.9065 174.878 68.633 170.641 65.865 168.34C63.2233 166.129 59.2608 165.68 53.7532 166.934L52.9126 167.127L53.4308 166.438C55.004 164.189 56.153 161.671 56.8214 159.009C58.1738 153.369 56.6444 148.582 52.2775 144.774C46.517 139.756 41.7519 140.982 38.769 142.919C32.7652 146.8 29.4221 156.21 30.9167 161.19L31.0399 161.6H30.4965L30.5281 161.61Z" fill="#1A1D4E"/>
<path d="M148.36 212.626H124.029C124.52 212.028 125.154 211.564 125.872 211.276C126.59 210.987 127.369 210.885 128.137 210.977C126.345 208.525 125.227 205.346 127.189 204.126C130.219 202.23 131.897 211.296 131.992 211.814C131.957 211.16 131.243 197.032 135.114 196.647C138.852 196.28 134.482 210.196 133.983 211.767C134.425 210.503 137.749 201.159 139.92 201.81C143.348 202.843 136.248 211.289 135.812 211.805C136.264 211.318 142.764 204.379 144.429 205.63C145.842 206.689 140.859 210.421 139.057 211.634C140.833 210.803 145.845 209.131 148.196 212.313C148.261 212.412 148.316 212.517 148.36 212.626Z" fill="#A1FFC7"/>
<path d="M130.194 210.642C129.878 208.784 128.652 203.794 126.942 203.03C126.769 202.953 126.578 202.924 126.389 202.944C126.201 202.965 126.021 203.034 125.868 203.147C125.648 203.28 125.46 203.459 125.316 203.673C125.173 203.886 125.077 204.128 125.037 204.382C124.793 205.646 125.511 207.624 126.914 209.542L126.405 209.915C124.879 207.829 124.136 205.715 124.417 204.262C124.475 203.923 124.604 203.601 124.796 203.316C124.989 203.032 125.24 202.792 125.533 202.612C125.773 202.444 126.053 202.341 126.345 202.314C126.636 202.286 126.931 202.334 127.198 202.454C128.538 203.052 129.505 205.475 130.102 207.51C130.08 203.014 130.503 195.392 133.594 195.086L133.657 195.718C130.655 196.012 130.592 206.537 130.813 210.569L130.194 210.642Z" fill="#1A1D4E"/>
<path d="M146.433 211.248C144.404 208.502 139.977 209.589 137.683 210.667L137.367 210.117C139.563 208.67 142.827 206.009 142.862 204.9C142.867 204.85 142.858 204.8 142.836 204.755C142.814 204.71 142.781 204.672 142.739 204.644C141.705 203.87 137.31 207.782 134.523 210.806L134.052 210.386C135.616 208.559 139.55 203.402 138.988 201.488C138.944 201.336 138.859 201.199 138.743 201.092C138.628 200.985 138.485 200.911 138.331 200.878C136.928 200.457 134.223 206.411 132.735 210.771L132.134 210.572C132.156 210.509 134.254 204.085 134.709 199.655L135.341 199.721C135.129 201.494 134.803 203.251 134.365 204.982C135.629 202.331 137.174 199.873 138.511 200.271C138.766 200.335 139 200.465 139.189 200.647C139.379 200.83 139.517 201.058 139.591 201.311C139.996 202.688 138.707 205.102 137.323 207.137C139.471 205.197 142.018 203.317 143.121 204.142C143.247 204.228 143.349 204.345 143.418 204.482C143.486 204.618 143.519 204.77 143.513 204.922C143.478 206.123 141.273 208.028 139.598 209.308C141.81 208.702 145.093 208.36 146.954 210.888L146.433 211.248Z" fill="#1A1D4E"/>
<path d="M94.5504 141.867H93.9184V177.349H94.5504V141.867Z" fill="#1A1D4E"/>
<path d="M94.5504 123.423H93.9184V134.915H94.5504V123.423Z" fill="#1A1D4E"/>
<path d="M168.943 120.642H168.627V121.274H168.943V120.642Z" fill="#1A1D4E"/>
<path d="M127.594 174.941V194.751L116.885 174.941H127.594Z" fill="#EEF6FF"/>
<path d="M109.521 178.866L120.518 199.209H109.521V178.866Z" fill="#EEF6FF"/>
<path d="M127.594 198.669V199.209H125.236L112.123 174.941H114.771L127.594 198.669Z" fill="#EEF6FF"/>
<path d="M124.869 197.487H117.377V196.855H124.237V173.219H106.798V196.855H111.373V197.487H106.166V172.587H124.869V197.487Z" fill="#1A1D4E"/>
<path d="M110.15 142.398L123.267 166.666H109.521V142.398H110.15Z" fill="#EEF6FF"/>
<path d="M127.593 142.398V164.169L115.826 142.398H127.593Z" fill="#EEF6FF"/>
<path d="M124.869 164.944H106.166V148.645H106.798V164.312H124.237V161.111H124.869V164.944Z" fill="#1A1D4E"/>
<path d="M124.869 156.56H124.237V140.676H106.798V143.172H106.166V140.044H124.869V156.56Z" fill="#1A1D4E"/>
<path d="M142.29 174.941L155.407 199.209H141.664V174.941H142.29Z" fill="#EEF6FF"/>
<path d="M159.736 174.941V196.713L147.968 174.941H159.736Z" fill="#EEF6FF"/>
<path d="M157.012 197.487H138.309V172.587H157.012V188.782H156.38V173.219H138.941V196.855H156.38V193.136H157.012V197.487Z" fill="#1A1D4E"/>
<path d="M159.736 142.398V162.207L149.027 142.398H159.736Z" fill="#EEF6FF"/>
<path d="M141.664 146.322L152.661 166.666H141.664V146.322Z" fill="#EEF6FF"/>
<path d="M159.735 166.125V166.666H157.378L144.261 142.398H146.909L159.735 166.125Z" fill="#EEF6FF"/>
<path d="M141.661 164.944H138.309V140.044H149.52V140.676H138.941V164.312H141.661V164.944Z" fill="#1A1D4E"/>
<path d="M157.012 164.944H145.696V164.312H156.38V140.676H154.083V140.044H157.012V164.944Z" fill="#1A1D4E"/>
<path d="M168.943 121.034V132.842L94.2344 126.406V123.423H168.627V121.034H168.943Z" fill="#1A1D4E"/>
<path d="M66.9207 54.2309H66.2888V104.603H66.9207V54.2309Z" fill="#1A1D4E"/>
<path d="M66.9207 110.622H66.2888V116.158H66.9207V110.622Z" fill="#1A1D4E"/>
<path d="M66.9207 46.1132H66.2888V31.7105H168.944V32.3424H66.9207V46.1132Z" fill="#1A1D4E"/>
<path d="M345.998 123.739V132.842L271.286 126.406V123.739H345.998Z" fill="#1A1D4E"/>
<path d="M279.467 115.526H270.97V116.158H279.467V115.526Z" fill="#1A1D4E"/>
<path d="M350.564 118.465V121.116C350.563 121.895 350.254 122.642 349.703 123.193C349.152 123.744 348.405 124.054 347.626 124.055H270.97V123.423H347.626C348.237 123.422 348.823 123.179 349.256 122.746C349.688 122.314 349.931 121.728 349.932 121.116V118.465C349.932 117.853 349.689 117.266 349.257 116.834C348.824 116.401 348.237 116.158 347.626 116.158H338.626V115.526H347.626C348.405 115.527 349.152 115.837 349.703 116.388C350.254 116.939 350.563 117.686 350.564 118.465Z" fill="#1A1D4E"/>
<path d="M331.33 115.526H284.99V116.158H331.33V115.526Z" fill="#1A1D4E"/>
<path d="M169.259 68.2703H168.627V31.7105H271.601V48.3251H270.969V32.3424H169.259V68.2703Z" fill="#1A1D4E"/>
<path d="M169.259 76.2964H168.627V139.541H169.259V76.2964Z" fill="#1A1D4E"/>
<path d="M271.602 106.928H270.97V139.541H271.602V106.928Z" fill="#1A1D4E"/>
<path d="M271.602 54.5817H270.97V100.947H271.602V54.5817Z" fill="#1A1D4E"/>
<path d="M168.944 33.0503L72.6212 32.0265H66.6048V38.5042L168.944 47.3171V33.0503Z" fill="#1A1D4E"/>
<path d="M271.523 146.885V158.207L271.286 158.188L169.18 149.394V146.885H271.523Z" fill="#1A1D4E"/>
<path d="M246.016 35.8215H245.384V41.2597H246.016V35.8215Z" fill="#1A1D4E"/>
<path d="M246.016 46.0469H245.384V119.789H246.016V46.0469Z" fill="#1A1D4E"/>
<path d="M246.016 125.363H245.384V139.225H246.016V125.363Z" fill="#1A1D4E"/>
<path d="M220.43 39.5154V66.0584H219.798V39.5154H220.43Z" fill="#1A1D4E"/>
<path d="M220.114 109.004H220.43V133.942H219.798V109.001L220.114 109.004Z" fill="#1A1D4E"/>
<path d="M194.845 35.8215H194.213V52.1233H194.845V35.8215Z" fill="#1A1D4E"/>
<path d="M194.845 56.4587H194.213V123.739H194.845V56.4587Z" fill="#1A1D4E"/>
<path d="M194.845 129.91H194.213V139.225H194.845V129.91Z" fill="#1A1D4E"/>
<path d="M266.451 61.3565H230.978V61.9885H266.451V61.3565Z" fill="#1A1D4E"/>
<path d="M226.241 61.3565H179.238V61.9885H226.241V61.3565Z" fill="#1A1D4E"/>
<path d="M198.637 87.5234C198.637 87.6277 198.637 87.7351 198.637 87.8394H189.647V87.2074H198.64C198.637 87.3117 198.637 87.4065 198.637 87.5234Z" fill="#1A1D4E"/>
<path d="M271.286 87.2074V87.8394H241.583C241.583 87.7351 241.583 87.6277 241.583 87.5234C241.583 87.4191 241.583 87.3117 241.583 87.2074H271.286Z" fill="#1A1D4E"/>
<path d="M184.949 87.2074H168.944V87.8394H184.949V87.2074Z" fill="#1A1D4E"/>
<path d="M271.286 113.058H261.228V113.69H271.286V113.058Z" fill="#1A1D4E"/>
<path d="M253.894 113.058H176.745V113.69H253.894V113.058Z" fill="#1A1D4E"/>
<path d="M111.778 53.4631L122.775 73.8064H111.778V53.4631Z" fill="#EEF6FF"/>
<path d="M129.849 49.5385V69.3478L119.141 49.5385H129.849Z" fill="#EEF6FF"/>
<path d="M117.024 49.5385L129.85 73.266V73.8064H127.492L114.376 49.5385H117.024Z" fill="#EEF6FF"/>
<path d="M158.835 82.0853V101.895L148.126 82.0853H158.835Z" fill="#EEF6FF"/>
<path d="M140.763 86.0067L151.76 106.353H140.763V86.0067Z" fill="#EEF6FF"/>
<path d="M158.835 105.813V106.353H156.478L143.361 82.0853H146.009L158.835 105.813Z" fill="#EEF6FF"/>
<path d="M82.1857 123.429V124.061H25.0393C24.2604 124.059 23.5139 123.749 22.9632 123.198C22.4124 122.648 22.1023 121.901 22.1006 121.122H22.7326C22.7334 121.734 22.9767 122.32 23.4091 122.753C23.8415 123.185 24.4278 123.428 25.0393 123.429H82.1857Z" fill="#1A1D4E"/>
<path d="M169.259 115.526V124.055H88.0411V123.423L168.627 123.423V116.158H135.528V115.526H169.259Z" fill="#1A1D4E"/>
<path d="M124.001 115.526H55.0963V116.158H124.001V115.526Z" fill="#1A1D4E"/>
<path d="M48.988 115.529V116.161H25.0393C24.4278 116.162 23.8415 116.406 23.4091 116.838C22.9767 117.27 22.7334 117.857 22.7326 118.468H22.1006C22.1014 117.689 22.4113 116.942 22.9623 116.391C23.5132 115.84 24.2602 115.53 25.0393 115.529H48.988Z" fill="#1A1D4E"/>
<path d="M194.81 222.7H188.172V187.717H188.804V222.068H194.81V222.7Z" fill="#1A1D4E"/>
<path d="M252.058 222.7H246.506V222.068H251.426V215.047H252.058V222.7Z" fill="#1A1D4E"/>
<path d="M188.804 176.85H188.172V181.738H188.804V176.85Z" fill="#1A1D4E"/>
<path d="M252.057 176.85H251.425V206.923H252.057V176.85Z" fill="#1A1D4E"/>
<path d="M197.566 176.85V222.384H242.667V176.85H197.566ZM224.147 203.393H216.086V193.828H224.147V203.393Z" fill="#70D9FE"/>
<path d="M224.462 203.7H215.766V201.905H216.398V203.068H223.83V198.887H224.462V203.7Z" fill="#1A1D4E"/>
<path d="M216.398 200.006H215.766V193.512H224.462V195.361H223.83V194.144H216.398V200.006Z" fill="#1A1D4E"/>
<path d="M200.861 222.7H197.246V216.573H197.878V222.068H200.861V222.7Z" fill="#1A1D4E"/>
<path d="M229.499 222.068H206.163V222.7H229.499V222.068Z" fill="#1A1D4E"/>
<path d="M242.983 222.7H236.473V222.068H242.351V189.527H242.983V222.7Z" fill="#1A1D4E"/>
<path d="M197.878 176.85H197.246V209.45H197.878V176.85Z" fill="#1A1D4E"/>
<path d="M242.982 176.85H242.351V181.96H242.982V176.85Z" fill="#1A1D4E"/>
<path d="M220.43 181.738H219.798V219.493H220.43V181.738Z" fill="#1A1D4E"/>
<path d="M83.4214 49.5385L96.5381 73.8064H82.7926V49.5385H83.4214Z" fill="#EEF6FF"/>
<path d="M100.864 49.5385V71.3101L89.0967 49.5385H100.864Z" fill="#EEF6FF"/>
<path d="M353.355 134.613L345.721 146.297L346.25 146.643L353.884 134.959L353.355 134.613Z" fill="#1A1D4E"/>
<path d="M353.857 218.203C353.673 215.931 353.664 213.185 353.651 210.278C353.626 204.211 353.598 196.659 351.97 189.49C351.473 187.258 350.8 185.07 349.957 182.945L350.545 182.712C351.401 184.866 352.084 187.085 352.59 189.347C354.233 196.587 354.261 204.177 354.286 210.275C354.286 213.17 354.309 215.906 354.489 218.153L353.857 218.203Z" fill="#1A1D4E"/>
<path d="M354.001 201.415L353.553 200.969C353.724 200.821 353.904 200.682 354.09 200.552C359.945 196.151 363.323 192.653 364.129 190.125L364.732 190.317C363.885 192.972 360.435 196.59 354.472 201.061C354.248 201.222 354.039 201.38 354.001 201.415Z" fill="#1A1D4E"/>
<path d="M359.317 191.127L358.242 197.322L358.865 197.43L359.939 191.235L359.317 191.127Z" fill="#1A1D4E"/>
<path d="M365.889 193.672L361.723 193.978L361.769 194.608L365.935 194.302L365.889 193.672Z" fill="#1A1D4E"/>
<path d="M355.347 190.043L352.991 195.327L353.569 195.585L355.925 190.301L355.347 190.043Z" fill="#1A1D4E"/>
<path d="M349.221 186.755L348.845 187.264L352.081 189.654L352.456 189.145L349.221 186.755Z" fill="#1A1D4E"/>
<path d="M42.3524 172.161C38.905 168.969 37.4799 162.902 37.423 162.643L38.0392 162.501C38.0392 162.561 39.4801 168.637 42.779 171.696L42.3524 172.161Z" fill="#1A1D4E"/>
<path d="M44.8455 159.3L44.5295 158.757C44.5959 158.715 51.2158 154.766 52.3629 152.519L52.9253 152.807C51.6898 155.214 45.1236 159.136 44.8455 159.3Z" fill="#1A1D4E"/>
<path d="M109.904 212.626H80.783C80.783 212.626 81.0136 207.69 90.2152 209.302C90.2152 209.302 75.0478 198.669 80.783 193.819C84.4642 190.716 92.5156 208.126 92.5156 208.126C92.5156 208.126 86.4202 182.146 92.5156 180.534C92.8224 180.446 93.1484 180.449 93.4537 180.542C93.759 180.636 94.0303 180.817 94.2346 181.062C97.998 185.069 95.6818 208.126 95.6818 208.126C95.6818 208.126 98.7943 194.043 102.634 195.601C106.473 197.159 98.7279 209.062 98.7279 209.062C98.7279 209.062 108.814 205.801 109.904 212.626Z" fill="#A1FFC7"/>
<path d="M106.002 209.378C103.67 205.324 95.8904 207.798 95.824 207.798L94.974 208.073L95.4606 207.324C95.4606 207.305 96.6487 205.494 97.84 203.216L98.3993 203.51C97.6409 204.951 96.8889 206.212 96.4307 206.954C98.5857 206.404 104.413 205.32 106.542 209.033L106.002 209.378Z" fill="#1A1D4E"/>
<path d="M92.9863 206.629L92.3543 206.528C92.3543 206.373 93.8806 191.044 92.4112 183.378L93.0432 183.258C94.086 188.706 93.6499 197.917 93.2897 202.985C94.2787 199.633 95.9945 194.943 98.08 193.847C98.3328 193.703 98.6149 193.619 98.9051 193.6C99.1952 193.582 99.4858 193.629 99.7548 193.74C99.9921 193.832 100.208 193.973 100.389 194.152C100.57 194.331 100.712 194.546 100.807 194.782C101.272 195.888 100.974 197.753 99.9191 200.315L99.3345 200.075C100.308 197.705 100.617 195.967 100.226 195.019C100.163 194.86 100.068 194.715 99.9467 194.595C99.8255 194.474 99.6805 194.38 99.521 194.318C99.3368 194.243 99.1378 194.211 98.9394 194.225C98.741 194.239 98.5486 194.299 98.3771 194.4C95.372 195.986 93.0116 206.534 92.9863 206.629Z" fill="#1A1D4E"/>
<path d="M78.1033 211.065L77.4714 211.034C77.5318 210.524 77.6949 210.033 77.9507 209.589C78.2065 209.144 78.5498 208.757 78.9597 208.449C80.4606 207.248 82.8242 206.837 86.003 207.223C83.314 205.191 76.3781 199.535 76.179 195.127C76.145 194.532 76.2552 193.938 76.5 193.395C76.7448 192.852 77.117 192.376 77.5851 192.008C77.8078 191.814 78.0742 191.677 78.3615 191.609C78.6489 191.54 78.9485 191.543 79.2346 191.616C82.3281 192.302 86.6192 200.053 88.6542 204.066C87.2765 197.383 84.2304 180.051 89.441 178.661L89.6021 179.27C84.8465 180.534 88.1518 199.342 89.8297 206.486L90.5406 209.51L89.2356 206.692C89.1724 206.556 82.9 193.076 79.0987 192.232C78.9073 192.181 78.7062 192.178 78.5134 192.224C78.3205 192.269 78.1417 192.361 77.9928 192.491C77.5981 192.797 77.2841 193.194 77.0781 193.648C76.8721 194.102 76.7804 194.6 76.811 195.098C77.0353 200.154 87.2986 207.393 87.4029 207.466L88.5657 208.281L87.169 208.038C83.5952 207.406 80.8998 207.722 79.3736 208.932C79.0289 209.184 78.7386 209.502 78.5202 209.869C78.3019 210.235 78.1601 210.642 78.1033 211.065Z" fill="#1A1D4E"/>
<path d="M5.62649 83.9957L2.7084 86.9138L3.37872 87.5841L6.2968 84.666L5.62649 83.9957Z" fill="#A1FFC7"/>
<path d="M9.9076 79.7133L6.98951 82.6314L7.65982 83.3017L10.5779 80.3836L9.9076 79.7133Z" fill="#A1FFC7"/>
<path d="M3.37826 79.7137L2.70795 80.384L5.62603 83.3021L6.29634 82.6318L3.37826 79.7137Z" fill="#A1FFC7"/>
<path d="M7.65752 83.9954L6.98721 84.6657L9.9053 87.5838L10.5756 86.9135L7.65752 83.9954Z" fill="#A1FFC7"/>
<path d="M287.202 49.0867L283.094 43.9203L287.202 38.7539L291.31 43.9203L287.202 49.0867ZM284.314 43.9203L287.202 47.5636L290.09 43.9203L287.202 40.2769L284.314 43.9203Z" fill="#A1FFC7"/>
<path d="M171.402 7.0287H170.454V11.1555H171.402V7.0287Z" fill="#386CF5"/>
<path d="M171.402 0.971191H170.454V5.09799H171.402V0.971191Z" fill="#386CF5"/>
<path d="M169.964 5.59089H165.837V6.53885H169.964V5.59089Z" fill="#386CF5"/>
<path d="M176.018 5.59089H171.891V6.53885H176.018V5.59089Z" fill="#386CF5"/>
<path d="M371.342 223.337L368.424 226.255L369.094 226.926L372.012 224.008L371.342 223.337Z" fill="#386CF5"/>
<path d="M375.624 219.055L372.706 221.973L373.376 222.643L376.294 219.725L375.624 219.055Z" fill="#386CF5"/>
<path d="M369.096 219.058L368.426 219.728L371.344 222.646L372.014 221.976L369.096 219.058Z" fill="#386CF5"/>
<path d="M373.375 223.342L372.705 224.013L375.623 226.931L376.293 226.26L373.375 223.342Z" fill="#386CF5"/>
<path d="M14.4129 140.176L8.50076 134.264L16.5742 132.1L14.4129 140.176ZM10.3335 134.757L13.9231 138.347L15.2218 133.433L10.3335 134.757Z" fill="#386CF5"/>
<path d="M114.157 14.4322L108.245 8.5201L116.318 6.35559L114.157 14.4322ZM110.078 9.00988L113.667 12.5995L114.982 7.69853L110.078 9.00988Z" fill="#A1FFC7"/>
<path d="M377.562 118.74C376.862 118.74 376.178 118.533 375.596 118.145C375.014 117.756 374.56 117.204 374.292 116.557C374.024 115.91 373.954 115.199 374.091 114.513C374.228 113.826 374.565 113.196 375.061 112.701C375.556 112.207 376.187 111.871 376.874 111.735C377.56 111.599 378.272 111.671 378.918 111.94C379.564 112.209 380.116 112.663 380.503 113.246C380.891 113.829 381.097 114.514 381.095 115.213C381.091 116.149 380.718 117.045 380.056 117.706C379.394 118.366 378.497 118.738 377.562 118.74ZM377.562 112.619C377.05 112.619 376.55 112.771 376.124 113.055C375.699 113.34 375.367 113.744 375.171 114.217C374.975 114.69 374.924 115.21 375.024 115.712C375.124 116.214 375.37 116.675 375.732 117.037C376.094 117.399 376.555 117.645 377.057 117.745C377.559 117.845 378.079 117.794 378.552 117.598C379.025 117.402 379.429 117.07 379.714 116.645C379.998 116.219 380.15 115.719 380.15 115.207C380.15 114.867 380.083 114.531 379.953 114.217C379.823 113.903 379.632 113.617 379.392 113.377C379.152 113.137 378.866 112.946 378.552 112.816C378.238 112.686 377.902 112.619 377.562 112.619Z" fill="#A1FFC7"/>
<path d="M4.50018 218.936C3.80084 218.936 3.11721 218.729 2.53574 218.34C1.95426 217.952 1.50105 217.4 1.23343 216.754C0.965801 216.107 0.895777 215.397 1.03221 214.711C1.16864 214.025 1.50541 213.395 1.99991 212.9C2.49442 212.406 3.12446 212.069 3.81035 211.933C4.49625 211.796 5.20721 211.866 5.85331 212.134C6.49941 212.401 7.05164 212.855 7.44017 213.436C7.8287 214.017 8.03608 214.701 8.03608 215.4C8.03525 216.338 7.66245 217.237 6.99952 217.9C6.33659 218.563 5.4377 218.936 4.50018 218.936ZM4.50018 212.816C3.98833 212.816 3.48797 212.967 3.06239 213.252C2.63681 213.536 2.3051 213.94 2.10923 214.413C1.91335 214.886 1.8621 215.406 1.96196 215.909C2.06181 216.411 2.3083 216.872 2.67023 217.234C3.03216 217.596 3.49328 217.842 3.99529 217.942C4.4973 218.042 5.01765 217.99 5.49053 217.795C5.96342 217.599 6.3676 217.267 6.65197 216.841C6.93633 216.416 7.08812 215.915 7.08812 215.404C7.08812 214.717 6.81546 214.059 6.33013 213.574C5.84479 213.088 5.18654 212.816 4.50018 212.816Z" fill="#A1FFC7"/>
<path d="M308.556 77.2949L306.891 60.3169L305.226 77.2949L296.173 78.3724L305.226 79.4468L306.891 96.428L308.556 79.4468L317.612 78.3724L308.556 77.2949Z" fill="#7368FE"/>
<path d="M41.4959 28.1967L40.273 15.712L39.0501 28.1967L32.3923 28.9866L39.0501 29.7766L40.273 42.2613L41.4959 29.7766L48.1569 28.9866L41.4959 28.1967Z" fill="#7368FE"/>
<path d="M242.227 87.5234C242.227 87.6277 242.227 87.7351 242.227 87.8394C242.17 91.7404 241.08 95.5566 239.068 98.899L238.527 98.583C240.477 95.335 241.531 91.6276 241.58 87.8394C241.58 87.7351 241.58 87.6277 241.58 87.5234C241.58 87.4191 241.58 87.3117 241.58 87.2074C241.494 81.6192 239.236 76.2838 235.284 72.3318C231.332 68.3798 225.997 66.1218 220.408 66.0362H219.776C215.802 66.0891 211.92 67.249 208.568 69.3857L208.227 68.8517C211.682 66.6516 215.681 65.4578 219.776 65.4043H220.408C226.166 65.4859 231.664 67.8093 235.735 71.8806C239.807 75.9519 242.13 81.4503 242.212 87.2074C242.227 87.3117 242.227 87.4065 242.227 87.5234Z" fill="#1A1D4E"/>
<path d="M233.648 105.01C229.868 107.958 225.224 109.583 220.43 109.633H219.798C214.041 109.551 208.543 107.228 204.471 103.157C200.4 99.0854 198.077 93.587 197.995 87.8299C197.995 87.7256 197.995 87.6214 197.995 87.5139C197.995 87.4065 197.995 87.3022 197.995 87.1979C198.052 83.2969 199.142 79.4806 201.155 76.1384L201.695 76.4544C199.743 79.7017 198.689 83.4093 198.64 87.1979C198.64 87.3022 198.64 87.4097 198.64 87.5139C198.64 87.6182 198.64 87.7256 198.64 87.8299C198.721 93.4194 200.978 98.7571 204.931 102.71C208.884 106.663 214.221 108.92 219.811 109.001H220.443C225.089 108.944 229.588 107.367 233.253 104.511L233.648 105.01Z" fill="#1A1D4E"/>
<path d="M233.538 83.5357V91.5112H224.102V100.947H216.127V91.5112H206.695V83.5357H216.127V74.1003H224.102V83.5357H233.538Z" fill="#7368FE"/>
<path d="M232.176 81.7819V90.3894H225.022V89.7575H231.544V82.4139H222.108V72.9785H214.765V78.8243H214.133V72.3465H222.74V81.7819H232.176Z" fill="#1A1D4E"/>
<path d="M222.74 95.0566V99.8248H214.133V90.3894H204.701V81.7819H211.795V82.4139H205.333V89.7575H214.765V99.1928H222.108V95.0566H222.74Z" fill="#1A1D4E"/>
<path d="M98.1399 72.0843H79.4366V55.9847H80.0686V71.4523H97.508V68.106H98.1399V72.0843Z" fill="#1A1D4E"/>
<path d="M98.1399 63.3567H97.508V47.8164H80.0686V50.4865H79.4366V47.1844H98.1399V63.3567Z" fill="#1A1D4E"/>
<path d="M127.126 72.0842H108.422V47.1844H111.5V47.8164H109.054V71.4523H126.494V47.8164H116.249V47.1844H127.126V72.0842Z" fill="#1A1D4E"/>
<path d="M141.392 49.5385L154.506 73.8064H140.763V49.5385H141.392Z" fill="#EEF6FF"/>
<path d="M158.835 49.5385V71.3101L147.067 49.5385H158.835Z" fill="#EEF6FF"/>
<path d="M156.111 72.0842H137.408V68.1723H138.04V71.4523H155.479V47.8164H138.04V62.4877H137.408V47.1844H156.111V72.0842Z" fill="#1A1D4E"/>
<path d="M82.7926 86.0067L93.789 106.353H82.7926V86.0067Z" fill="#EEF6FF"/>
<path d="M100.864 82.0853V101.895L90.1587 82.0853H100.864Z" fill="#EEF6FF"/>
<path d="M88.0414 82.0853L100.864 105.813V106.353H98.5101L85.3934 82.0853H88.0414Z" fill="#EEF6FF"/>
<path d="M98.1399 104.628H79.4366V79.7311H98.1399V84.0823H97.508V80.3631H80.0686V103.996H97.508V89.1982H98.1399V104.628Z" fill="#1A1D4E"/>
<path d="M112.407 82.0853L125.521 106.35H111.778V82.0853H112.407Z" fill="#EEF6FF"/>
<path d="M129.849 82.0853V103.854L118.082 82.0853H129.849Z" fill="#EEF6FF"/>
<path d="M127.126 104.628H121.128V103.996H126.494V80.3631H109.054V103.996H116.752V104.628H108.422V79.7311H127.126V104.628Z" fill="#1A1D4E"/>
<path d="M156.111 104.628H137.408V99.4361H138.04V103.996H155.479V80.3631H138.04V92.1811H137.408V79.7311H156.111V104.628Z" fill="#1A1D4E"/>
<path d="M272.625 27.925H65.2615C63.6542 27.925 62.3512 29.2279 62.3512 30.8352V32.9113C62.3512 34.5185 63.6542 35.8215 65.2615 35.8215H272.625C274.233 35.8215 275.536 34.5185 275.536 32.9113V30.8352C275.536 29.2279 274.233 27.925 272.625 27.925Z" fill="white"/>
<path d="M203.693 36.1375H64.9744C64.1952 36.1366 63.4482 35.8267 62.8973 35.2758C62.3464 34.7249 62.0365 33.9779 62.0357 33.1988V30.5476C62.0365 29.7685 62.3464 29.0215 62.8973 28.4706C63.4482 27.9197 64.1952 27.6098 64.9744 27.6089H73.1332V28.2409H64.9744C64.3628 28.2418 63.7766 28.485 63.3442 28.9175C62.9118 29.3499 62.6685 29.9361 62.6677 30.5476V33.1988C62.6685 33.8103 62.9118 34.3965 63.3442 34.8289C63.7766 35.2613 64.3628 35.5046 64.9744 35.5055H203.693V36.1375Z" fill="#1A1D4E"/>
<path d="M272.913 36.1375H211.533V35.5055H272.916C273.528 35.5046 274.114 35.2614 274.547 34.8289C274.979 34.3965 275.222 33.8103 275.223 33.1988H275.855C275.854 33.9785 275.544 34.7259 274.992 35.2769C274.441 35.828 273.693 36.1375 272.913 36.1375Z" fill="#1A1D4E"/>
<path d="M275.852 30.5476H275.22C275.219 29.9361 274.976 29.3499 274.543 28.9175C274.111 28.485 273.525 28.2418 272.913 28.2409H175.071V27.6089H272.916C273.695 27.6106 274.441 27.9209 274.991 28.4717C275.541 29.0225 275.851 29.769 275.852 30.5476Z" fill="#1A1D4E"/>
<path d="M166.681 27.6089H83.4214V28.2409H166.681V27.6089Z" fill="#1A1D4E"/>
<path d="M29.1756 222.7H22.1006V217.505H22.7326V222.068H29.1756V222.7Z" fill="#1A1D4E"/>
<path d="M101.003 222.068H32.8126V222.7H101.003V222.068Z" fill="#1A1D4E"/>
<path d="M150.698 222.068H106.482V222.7H150.698V222.068Z" fill="#1A1D4E"/>
<path d="M169.26 222.7H159.736V222.068H168.628V212.942H120.617V212.31H169.26V222.7Z" fill="#1A1D4E"/>
<path d="M115.52 212.31H72.6874V212.942H115.52V212.31Z" fill="#1A1D4E"/>
<path d="M61.4727 212.31H22.4166V212.942H61.4727V212.31Z" fill="#1A1D4E"/>
<path d="M47.5569 212.642L46.9249 212.607C47.2725 206.464 46.0528 199.968 44.7604 193.079C43.0477 183.969 41.2845 174.55 42.8644 164.707C43.9799 157.733 46.5647 152.285 46.9059 152.067L47.2598 152.592C47.2774 152.58 47.2934 152.566 47.3072 152.551C46.9912 152.968 44.5518 158.169 43.4869 164.82C41.9323 174.556 43.6892 183.922 45.3829 192.978C46.6816 199.898 47.9108 206.423 47.5569 212.642Z" fill="#1A1D4E"/>
<path d="M172.9 138.913V139.544H167.316C166.704 139.544 166.118 139.788 165.685 140.22C165.252 140.653 165.009 141.239 165.009 141.851H164.377C164.378 141.072 164.688 140.325 165.239 139.774C165.79 139.223 166.537 138.913 167.316 138.913H172.9Z" fill="#1A1D4E"/>
<path d="M275.855 141.848V144.499C275.854 145.278 275.544 146.025 274.993 146.576C274.442 147.127 273.695 147.437 272.916 147.438H167.316C166.537 147.437 165.79 147.127 165.239 146.576C164.688 146.025 164.378 145.278 164.377 144.499H165.009C165.01 145.111 165.254 145.697 165.686 146.129C166.118 146.562 166.705 146.805 167.316 146.806H272.916C273.527 146.804 274.113 146.561 274.545 146.128C274.978 145.696 275.221 145.11 275.223 144.499V141.848C275.222 141.237 274.979 140.65 274.546 140.218C274.114 139.785 273.528 139.542 272.916 139.541H239.807V138.909H272.916C273.695 138.91 274.442 139.22 274.993 139.771C275.544 140.322 275.854 141.069 275.855 141.848Z" fill="#1A1D4E"/>
<path d="M228.327 138.909H178.47V139.541H228.327V138.909Z" fill="#1A1D4E"/>
<path d="M203.497 177.166H187.144C186.289 177.165 185.469 176.825 184.864 176.22C184.259 175.615 183.919 174.795 183.918 173.94V171.864C183.919 171.008 184.259 170.188 184.864 169.583C185.469 168.978 186.289 168.638 187.144 168.637V169.269C186.457 169.27 185.797 169.544 185.311 170.03C184.824 170.517 184.551 171.176 184.55 171.864V173.94C184.551 174.628 184.824 175.287 185.311 175.773C185.797 176.26 186.457 176.533 187.144 176.534H203.497V177.166Z" fill="#1A1D4E"/>
<path d="M245.656 176.534H208.856V177.166H245.656V176.534Z" fill="#1A1D4E"/>
<path d="M253.085 177.166H249.814V176.534H253.085C253.772 176.533 254.432 176.26 254.918 175.773C255.404 175.287 255.678 174.628 255.679 173.94V171.864C255.678 171.176 255.404 170.517 254.918 170.03C254.432 169.544 253.772 169.27 253.085 169.269H243.049V168.637H253.088C253.512 168.637 253.932 168.72 254.324 168.882C254.717 169.045 255.073 169.282 255.373 169.582C255.673 169.882 255.912 170.238 256.074 170.63C256.237 171.022 256.32 171.443 256.32 171.867V173.943C256.319 174.367 256.235 174.787 256.072 175.178C255.909 175.57 255.67 175.925 255.37 176.225C255.069 176.524 254.713 176.761 254.321 176.923C253.929 177.084 253.509 177.167 253.085 177.166Z" fill="#1A1D4E"/>
<path d="M237.69 168.641H192.15V169.273H237.69V168.641Z" fill="#1A1D4E"/>
<path d="M271.286 222.068H264.356V222.7H271.286V222.068Z" fill="#1A1D4E"/>
<path d="M172.912 222.7H168.627V170.811H169.259V222.068H172.912V222.7Z" fill="#1A1D4E"/>
<path d="M169.259 147.093H168.627V162.097H169.259V147.093Z" fill="#1A1D4E"/>
<path d="M256.962 222.068H251.742V222.7H256.962V222.068Z" fill="#1A1D4E"/>
<path d="M188.487 222.068H178.047V222.7H188.487V222.068Z" fill="#1A1D4E"/>
<path d="M44.0462 187.385L43.9324 186.753C44.043 186.734 55.0552 184.649 58.4015 176.717L58.9829 176.964C55.507 185.224 44.1599 187.366 44.0462 187.385Z" fill="#1A1D4E"/>
<path d="M45.1865 194.526C44.7789 194.365 35.1286 190.494 32.0477 185.179L32.5944 184.863C35.5679 189.992 45.3224 193.901 45.4203 193.939L45.1865 194.526Z" fill="#1A1D4E"/>
</svg>
