<svg width="121" height="112" viewBox="0 0 121 112" fill="none" xmlns="http://www.w3.org/2000/svg">
      <path
        d="M18.1996 81.5548V73.9644V63.3085C18.1996 60.7206 18.5658 58.4625 15.4507 58.2849C12.3355 58.1073 10.8521 61.634 5.51173 60.4161C2.69329 59.7734 0.319827 56.9149 0.319824 53.5659C0.319819 47.7812 6.59805 44.2909 12.6321 48.0856C18.1996 51.5869 18.1996 45.0411 18.1996 42.9099V30.2959C18.1996 29.1913 19.095 28.2959 20.1996 28.2959H39.2641C43.4176 28.6004 40.8958 33.3194 39.7091 36.2118C37.3356 41.9965 40.5497 45.244 42.8243 46.1067C50.8347 48.0856 52.7631 39.5608 50.093 36.2118C46.4421 31.6326 47.4228 28.7526 49.2029 28.7526H67.3743C68.5362 28.7526 69.474 29.7385 69.4643 30.9005C69.4394 33.8938 69.5258 38.8909 69.5258 43.8232C69.5258 51.7391 76.6462 49.1512 76.6462 49.3035C76.6462 49.4557 87.3157 46.4609 88.2168 54.7837C88.8102 60.2639 83.0249 63.7651 76.6462 61.7861C71.5432 60.2028 70.7125 62.0907 70.7125 63.7651V81.5548C70.7125 82.6594 69.8171 83.5548 68.7125 83.5548H48.9915C48.2937 83.5548 47.6318 83.1955 47.3243 82.5691C45.2645 78.3726 47.6394 76.2564 49.0546 72.7466C50.8347 68.332 48.8892 64.6555 45.9394 63.7651C42.0826 62.6009 35.2588 64.6786 38.0773 72.7466C40.2508 78.9682 40.1541 83.5548 36.5939 83.5548H20.1996C19.095 83.5548 18.1996 82.6594 18.1996 81.5548Z"
        fill="#3F4079"
      />
      <path
        d="M69.1748 29.485H86.2575C88.3372 29.485 92.1303 27.5896 90.8625 19.9821C89.5255 11.9601 95.9043 12.0268 98.5868 12.9997C99.9733 13.4953 102.33 15.5857 100.666 19.9821C98.5868 25.4774 99.9237 29.7868 104.232 29.7868H117.68C118.785 29.7868 119.68 30.6823 119.68 31.7868V80.7933C119.68 81.9055 118.777 82.8043 117.665 82.7953C113.425 82.7609 103.81 82.6978 101.855 82.8128C99.3296 82.9614 99.7678 85.717 101.261 89.2003C103.489 94.3994 101.186 100.743 93.6848 99.4499C89.377 98.7072 87.5945 94.1023 89.377 89.2003C91.1595 84.2983 89.0799 82.8128 87.1488 82.8128C83.2254 82.8128 74.0475 82.7633 70.1358 82.8128"
        stroke="black"
        strokeWidth="1.5"
        strokeLinecap="round"
      />
      <path
        d="M71.4731 99.5986C72.4139 101.233 74.3549 104.768 74.5926 105.838"
        stroke="black"
        strokeWidth="1.5"
        strokeLinecap="round"
      />
      <path
        d="M67.7596 100.489C67.2645 101.826 67.0169 105.807 69.9878 111.036"
        stroke="black"
        strokeWidth="1.5"
        strokeLinecap="round"
      />
      <path
        d="M62.1144 99.5986C60.1833 101.381 56.232 105.54 55.8755 107.917"
        stroke="black"
        strokeWidth="1.5"
        strokeLinecap="round"
      />
      <path
        d="M68.3534 12.4014C70.2845 10.6188 74.2358 6.45954 74.5923 4.08281"
        stroke="black"
        strokeWidth="1.5"
        strokeLinecap="round"
      />
      <path
        d="M62.7086 11.5107C63.2038 10.1738 63.4514 6.19281 60.4805 0.964007"
        stroke="black"
        strokeWidth="1.5"
        strokeLinecap="round"
      />
      <path
        d="M58.9951 12.4014C58.0543 10.7674 56.1133 7.23198 55.8757 6.16245"
        stroke="black"
        strokeWidth="1.5"
        strokeLinecap="round"
      />
</svg>