<svg xmlns="http://www.w3.org/2000/svg" width="40" height="40" viewBox="0 0 21.65 21.44">
<title>icon</title>
<g>
  <g>
    <path
      d="M21.65,10.66a7.66,7.66,0,0,1-.43.86,5,5,0,0,0-.92,3.62,1.37,1.37,0,0,1-.94,1.57,4.82,4.82,0,0,0-2.55,2.59,1.41,1.41,0,0,1-1.6.93,6.14,6.14,0,0,0-3.81,1.05,1.38,1.38,0,0,1-1.32,0,5.76,5.76,0,0,0-3.93-1,1.19,1.19,0,0,1-1.34-.8A6.06,6.06,0,0,0,2,16.58a1.48,1.48,0,0,1-.72-1.22,6.71,6.71,0,0,0-1.08-4,1.35,1.35,0,0,1,0-1.22,6.09,6.09,0,0,0,1.06-4A1.2,1.2,0,0,1,2,4.77,5.25,5.25,0,0,0,4.77,2a1.22,1.22,0,0,1,1.42-.82A5.78,5.78,0,0,0,10,.17a1.6,1.6,0,0,1,1.4,0,6.59,6.59,0,0,0,3.94,1,1.44,1.44,0,0,1,1.22.72,6.8,6.8,0,0,0,3,2.93,1.45,1.45,0,0,1,.68,1,6.18,6.18,0,0,0,1.16,4.31A3.2,3.2,0,0,1,21.65,10.66ZM16.4,12.45a6.49,6.49,0,0,0-1.54.19,11.72,11.72,0,0,0-1.75.92A38.65,38.65,0,0,1,9,15.9a2,2,0,0,1-3-2.05,25.58,25.58,0,0,1,.38-2.71c.09-.74.58-.75,1.08-.6.71.2,1.38.52,2.09.74a2.53,2.53,0,0,0,3.27-1.07l-5-1.4.32-1L4.73,10.91,6,10.63a44.51,44.51,0,0,0-.58,4.62c-.06,2.16,1.08,3,3.14,2.32a17.57,17.57,0,0,0,3.65-2.11C13.56,14.55,14.87,13.54,16.4,12.45ZM8.12,18.54c1.38.93,2.47,1,3.49.28.77-.55,1.48-1.19,2.22-1.78,1.25-1,2.17-2.46,3.91-2.78A1.13,1.13,0,0,0,16,13.89c-.83.54-1.64,1.1-2.42,1.71C11.93,16.87,10.45,18.38,8.12,18.54Zm2.06-17c-1.52,2-1.52,2.07-.1,3.58C11.67,3.38,11.45,2.91,10.18,1.57ZM9.86,6.28c.77.07,1.93-.14,2.67.32s.94,1.57,1.32,2.28a2.71,2.71,0,0,0-.31-3.09C12.78,5.2,10.72,5.57,9.86,6.28Z"
      fill="#334155"
    ></path>
  </g>
</g>
</svg>